<svg width="32" height="32" viewBox="0 0 32 32" fill="none" xmlns="http://www.w3.org/2000/svg">
<path d="M11.6995 27.6052C11.2595 27.6519 10.8862 27.6986 10.5129 27.7385C8.57296 27.9319 6.87973 27.4052 5.5998 25.892C5.19982 25.4187 4.97317 24.8054 4.63319 24.2787C4.10655 23.4521 3.56658 22.6322 2.98661 21.8389C2.78662 21.5656 2.43998 21.4056 2.17332 21.1723C2.08666 21.0989 2.06 20.9589 2 20.8456C2.11999 20.7989 2.23332 20.7189 2.35331 20.7056C3.88656 20.5656 4.9665 21.2722 5.71979 22.5455C6.65974 24.1321 8.01966 24.9987 9.86622 24.9987C10.3995 24.9987 10.9328 24.8187 11.4595 24.6987C11.5595 24.6721 11.6795 24.5187 11.6928 24.4054C11.7861 23.7121 11.8728 23.0188 12.1928 22.3855C12.3128 22.1522 12.4527 21.9322 12.5927 21.6922C12.0528 21.5856 11.5328 21.5056 11.0195 21.3789C8.65296 20.7789 6.69974 19.5923 5.56647 17.3391C5.12649 16.4592 4.87984 15.5126 4.84651 14.526C4.79318 13.006 4.81318 11.4795 5.11982 9.97955C5.33981 8.92628 5.73979 7.94633 6.53974 7.18637C6.71307 7.01972 6.7464 6.87306 6.65307 6.61974C6.20643 5.37314 6.15977 4.10655 6.53974 2.83329C6.61974 2.55997 6.69307 2.28665 6.77307 2C8.59963 2.34665 9.68623 3.57991 10.7062 4.9465C11.7595 4.16654 13.006 4.09988 14.2193 4.01989C15.6592 3.92656 17.1058 3.94656 18.5391 4.17988C19.2857 4.29987 19.7457 4.45319 20.4723 4.8865C21.0989 4.23987 21.6856 3.58658 22.3322 2.99328C22.8455 2.51997 23.4855 2.21999 24.1788 2.06C24.3721 2.01333 24.4721 2.03333 24.5521 2.24665C25.092 3.7199 25.172 5.18649 24.5787 6.65974C24.4987 6.85973 24.5054 6.99972 24.6721 7.15971C25.632 8.07299 26.072 9.25292 26.2186 10.5262C26.352 11.7061 26.4253 12.8927 26.4253 14.0793C26.4253 15.7659 25.9253 17.3125 24.8654 18.6391C24.1188 19.579 23.1521 20.2523 22.0589 20.7589C20.9989 21.2456 19.8923 21.5256 18.7457 21.6722C18.7191 21.6789 18.6924 21.6989 18.6457 21.7189C19.4324 22.8455 19.559 24.1121 19.5457 25.4253C19.5257 27.3386 19.5323 29.2451 19.5457 31.1584C19.5457 31.4583 19.459 31.5317 19.1657 31.5317C16.7992 31.5183 14.4326 31.5183 12.0661 31.5317C11.7728 31.5317 11.6795 31.4383 11.6795 31.1517C11.6928 30.1184 11.6861 29.0851 11.6861 28.0519C11.6995 27.8985 11.6995 27.7652 11.6995 27.6052Z" fill="white"/>
</svg>
