<svg width="488" height="488" viewBox="0 0 488 488" fill="none" xmlns="http://www.w3.org/2000/svg">
<path d="M487.201 241.269C486.035 108.105 377.347 0 243.6 0C110.145 0 1.166 108.105 0 241.561C0 242.144 0 242.727 0 243.309V243.6V243.891C0 244.474 0 245.057 0 245.639C1.166 379.095 109.853 487.2 243.6 487.2C377.056 487.2 486.035 379.095 487.2 245.931C487.2 245.348 487.2 244.474 487.2 243.891C487.201 243.309 487.201 241.852 487.201 241.269ZM157.641 53.324C138.409 81.297 123.549 118.595 115.39 161.72C102.278 164.634 89.748 168.131 78.092 172.21C64.105 177.164 52.158 182.117 42.543 187.362C59.443 127.628 101.986 78.675 157.641 53.324ZM34.967 243.309C34.967 233.693 51.867 218.25 89.457 205.429C95.868 203.098 102.861 201.058 109.854 199.31C108.397 213.588 107.814 228.449 107.814 243.601C107.814 258.753 108.688 273.614 109.854 287.892C102.569 285.852 95.867 283.813 89.457 281.773C51.867 268.368 34.967 252.925 34.967 243.309ZM42.834 299.255C52.45 304.5 64.105 309.745 78.383 314.407C89.747 318.195 102.277 321.692 115.681 324.897C124.131 368.022 138.701 405.611 158.224 433.293C101.986 407.943 59.443 358.99 42.834 299.255ZM226.117 448.446C207.76 441.161 189.694 422.512 175.416 395.122C165.8 376.473 157.933 355.202 152.688 331.599C175.999 335.096 200.767 337.135 226.409 337.718V448.445H226.117V448.446ZM226.117 302.752C197.852 301.878 170.753 299.547 145.985 295.176C143.945 278.275 142.78 261.084 142.78 243.309C142.78 225.534 143.946 208.051 145.985 191.442C170.753 187.363 197.852 184.74 226.117 183.866V302.752ZM226.117 148.899C200.475 149.482 175.707 151.521 152.396 155.018C157.932 131.707 165.508 110.144 175.124 91.495C189.402 64.105 207.468 45.456 225.825 38.171V148.898H226.117V148.899ZM444.366 187.362C434.75 182.117 423.095 176.872 408.817 172.21C397.453 168.422 384.923 164.925 371.519 161.72C363.069 118.595 348.499 81.006 328.976 53.324C385.215 78.675 427.757 127.628 444.366 187.362ZM261.084 38.172C279.441 45.457 297.507 64.106 311.785 91.496C321.401 110.145 329.268 131.416 334.513 155.019C311.202 151.522 286.434 149.483 260.792 148.9V38.172H261.084ZM261.084 183.866C289.349 184.74 316.448 187.071 341.216 191.442C343.256 208.343 344.421 225.534 344.421 243.309C344.421 261.084 343.255 278.567 341.216 295.176C316.448 299.255 289.349 301.878 261.084 302.752V183.866ZM261.084 448.446V337.719C286.726 337.136 311.494 335.097 334.805 331.6C329.269 354.911 321.693 376.474 312.077 395.123C297.507 422.512 279.441 441.161 261.084 448.446ZM329.56 433.294C348.792 405.321 363.652 368.023 372.103 324.898C385.215 321.984 397.745 318.487 409.401 314.408C423.388 309.454 435.335 304.501 444.95 299.256C427.757 358.99 385.215 407.943 329.56 433.294ZM397.744 281.189C391.333 283.52 384.34 285.56 377.347 287.308C378.804 273.03 379.387 258.169 379.387 243.017C379.387 227.865 378.513 213.004 377.347 198.726C384.632 200.766 391.334 202.805 397.744 204.845C435.333 217.666 452.234 233.11 452.234 242.725C452.234 252.342 435.333 268.368 397.744 281.189Z" fill="white"/>
</svg>
