<svg width="32" height="32" viewBox="0 0 32 32" fill="none" xmlns="http://www.w3.org/2000/svg">
<path d="M11.1285 30.8666C11.1285 30.7243 11.1285 30.588 11.1285 30.4517C11.1285 24.0687 11.1285 17.6915 11.1285 11.3085C11.1285 11.1307 11.1166 10.9884 11.3774 10.9884C13.2621 11.0003 15.1527 10.9943 17.0374 10.9943C17.0848 10.9943 17.1323 11.0062 17.2093 11.0181C17.2093 11.8478 17.2093 12.6657 17.2093 13.4895C17.233 13.4954 17.2508 13.5073 17.2745 13.5132C17.5116 13.205 17.7368 12.885 17.9857 12.5827C18.7088 11.6937 19.6155 11.0418 20.6824 10.6506C21.2632 10.4372 21.8973 10.3069 22.5078 10.2772C23.3494 10.2417 24.2087 10.2535 25.0385 10.3958C26.4016 10.6269 27.6047 11.2314 28.6004 12.2212C29.5428 13.1517 30.1651 14.2718 30.5029 15.5342C30.6807 16.2039 30.7933 16.8914 30.9 17.573C30.9711 18.0471 31.0067 18.5331 31.0067 19.0073C31.0126 22.8596 31.0126 26.712 31.0126 30.5643C31.0126 30.6592 31.0067 30.754 31.0007 30.8784C30.8881 30.8784 30.7933 30.8784 30.6985 30.8784C28.879 30.8784 27.0654 30.8725 25.2459 30.8844C24.9437 30.8844 24.8903 30.7836 24.8903 30.511C24.8962 26.9668 24.9081 23.4167 24.8844 19.8726C24.8785 19.2502 24.8192 18.6042 24.6592 18.0056C24.3688 16.9566 23.705 16.198 22.65 15.8128C21.761 15.4868 20.8601 15.4275 19.9474 15.6587C18.9399 15.9135 18.2465 16.5832 17.7249 17.4663C17.3219 18.1479 17.2449 18.9006 17.2389 19.6533C17.2152 23.2508 17.2271 26.8424 17.2271 30.4399C17.2271 30.5762 17.2271 30.7125 17.2271 30.8607C15.1824 30.8666 13.1732 30.8666 11.1285 30.8666Z" fill="white"/>
<path d="M7.31207 21.0222C7.31207 24.1811 7.30615 27.34 7.318 30.499C7.318 30.7835 7.25873 30.8901 6.94462 30.8842C5.13697 30.8664 3.32933 30.8664 1.52169 30.8842C1.22535 30.8842 1.16016 30.7835 1.16016 30.5108C1.16608 24.1633 1.16608 17.8099 1.16016 11.4624C1.16016 11.2076 1.23128 11.1187 1.49205 11.1187C3.31748 11.1305 5.1429 11.1305 6.97425 11.1187C7.25873 11.1187 7.31207 11.2253 7.31207 11.4802C7.31207 14.6628 7.31207 17.8455 7.31207 21.0222Z" fill="white"/>
<path d="M4.17081 1.00182C6.12069 0.95441 7.28825 2.37089 7.29418 4.10742C7.30011 5.88543 6.0555 7.21301 4.09969 7.20708C2.28019 7.20708 0.994094 5.90321 1.00002 4.06C1.00595 2.33533 2.25648 0.942557 4.17081 1.00182Z" fill="white"/>
</svg>
