<svg width="32" height="32" viewBox="0 0 32 32" fill="none" xmlns="http://www.w3.org/2000/svg">
<path d="M29.3334 22.4582C29.3334 23.0355 29.171 23.5707 28.9108 24.0416L20.5963 14.7388L28.8207 7.54322C29.1406 8.05094 29.3334 8.64733 29.3334 9.29181V22.4582ZM16.1667 16.4279L27.6107 6.41475C27.141 6.15766 26.6122 6 26.0418 6H6.29165C5.72049 6 5.1915 6.15766 4.72379 6.41475L16.1667 16.4279ZM19.3572 15.8221L16.7082 18.1414C16.5533 18.2764 16.3603 18.3438 16.1667 18.3438C15.973 18.3438 15.78 18.2764 15.6251 18.1414L12.9755 15.822L4.55581 25.2437C5.06049 25.5603 5.65195 25.75 6.29159 25.75H26.0418C26.6813 25.75 27.273 25.5603 27.7775 25.2437L19.3572 15.8221ZM3.51276 7.54317C3.19288 8.05088 3 8.64728 3 9.29181V22.4583C3 23.0356 3.16162 23.5708 3.42272 24.0416L11.7363 14.7372L3.51276 7.54317Z" fill="white"/>
</svg>
