<svg width="32" height="32" viewBox="0 0 32 32" fill="none" xmlns="http://www.w3.org/2000/svg">
<path d="M28.0822 5.19351L1.39475 14.9985C-0.406242 15.621 -0.406242 16.7104 1.0673 17.0217L7.7801 19.0449L10.3997 26.5154C10.7272 27.2936 10.5635 27.6048 11.3821 27.6048C12.037 27.6048 12.3645 27.2936 12.6919 26.9823C12.8556 26.8267 14.3292 25.4259 15.9664 23.8696L22.843 28.6943C24.1528 29.3168 24.9714 29.0055 25.2989 27.6048L29.8832 7.21675C30.3744 5.50477 29.2283 4.57097 28.0822 5.19351ZM24.644 9.86253L11.8733 20.9126L11.3821 26.0485L8.76246 18.578L23.8253 9.55126C24.4802 9.08436 25.1351 9.39563 24.644 9.86253Z" fill="white"/>
</svg>
