<svg width="594" height="594" viewBox="0 0 594 594" fill="none" xmlns="http://www.w3.org/2000/svg">
<path fill-rule="evenodd" clip-rule="evenodd" d="M0 0H594V594H0V0ZM421.703 488.988C411.945 482.982 404.082 474.342 399.02 464.061L353.707 490.452C363.344 508.769 378.077 523.906 396.127 534.036C414.177 544.166 434.773 548.856 455.429 547.539C508.444 547.539 547.923 520.003 547.923 469.747C547.923 423.139 521.109 402.412 473.673 382.068L459.715 376.086C435.764 365.669 425.39 358.881 425.39 342.143C425.423 338.769 426.159 335.439 427.55 332.366C428.941 329.292 430.957 326.543 433.47 324.291C435.983 322.04 438.937 320.337 442.144 319.29C445.352 318.244 448.742 317.877 452.099 318.213C459.793 318.099 467.34 320.326 473.739 324.6C480.138 328.874 485.087 334.992 487.93 342.143L531.567 314.246C524.186 299.824 512.721 287.895 498.604 279.946C484.487 271.997 468.342 268.381 452.183 269.547C402.266 269.547 370.445 301.432 370.445 343.288C370.445 388.729 397.175 410.219 437.482 427.382L451.441 433.364C476.898 444.502 492.087 451.333 492.087 470.425C492.087 486.442 477.301 498.004 454.178 498.004C442.72 498.119 431.462 494.993 421.703 488.988ZM237.749 497.601C218.572 497.601 210.595 484.448 201.834 468.898L156.393 496.455C163.581 512.401 175.427 525.797 190.371 534.885C205.316 543.972 222.661 548.324 240.125 547.37C289.534 547.37 323.476 521.064 323.476 463.276V272.73H267.662V462.534C267.662 490.431 256.079 497.601 237.749 497.601Z" fill="white" fill-opacity="0.2"/>
</svg>
