<svg width="103" height="50" viewBox="0 0 103 50" fill="none" xmlns="http://www.w3.org/2000/svg">
<path d="M84 25C84 28.3137 81.3137 31 78 31H67C65.8954 31 65 30.1046 65 29V21C65 19.8954 65.8954 19 67 19H78C81.3137 19 84 21.6863 84 25Z" fill="black" stroke="white" stroke-width="2"/>
<path d="M67 1H78C91.2548 1 102 11.7452 102 25C102 38.2548 91.2548 49 78 49H67C65.8954 49 65 48.1046 65 47V39C65 37.8954 65.8954 37 67 37H78C84.6274 37 90 31.6274 90 25C90 18.3726 84.6274 13 78 13H67C65.8954 13 65 12.1046 65 11V3C65 1.89543 65.8954 1 67 1Z" fill="black" stroke="white" stroke-width="2"/>
<rect x="1" y="37" width="12" height="12" rx="2" fill="black" stroke="white" stroke-width="2"/>
<rect x="33" y="19" width="12" height="12" rx="2" fill="black" stroke="white" stroke-width="2"/>
<rect x="1" y="19" width="26" height="12" rx="2" fill="black" stroke="white" stroke-width="2"/>
<rect x="1" y="1" width="26" height="12" rx="2" fill="black" stroke="white" stroke-width="2"/>
<rect x="33" y="37" width="26" height="12" rx="2" fill="black" stroke="white" stroke-width="2"/>
<rect x="33" y="1" width="26" height="12" rx="2" fill="black" stroke="white" stroke-width="2"/>
</svg>
