<svg width="194" height="194" viewBox="0 0 194 194" fill="none" xmlns="http://www.w3.org/2000/svg">
<path d="M107.5 95C107.5 100.799 102.799 105.5 97 105.5C91.201 105.5 86.5 100.799 86.5 95C86.5 89.201 91.201 84.5 97 84.5C102.799 84.5 107.5 89.201 107.5 95Z" stroke="white"/>
<path d="M172.528 99.742L172.122 99.4502L172.12 99.454L172.528 99.742ZM179.953 99.9121L179.527 100.174L179.529 100.176L179.953 99.9121ZM178.865 109.607L178.5 109.265L178.865 109.607ZM174.94 111.083L174.444 111.027L174.388 111.524L174.885 111.58L174.94 111.083ZM175.493 106.163L175.549 105.666L175.052 105.61L174.996 106.107L175.493 106.163ZM177.318 103.036L176.896 103.304L176.9 103.311L177.318 103.036ZM174.281 104.877L173.803 104.73L173.803 104.731L174.281 104.877ZM173.377 107.281L173.829 107.496L173.829 107.495L173.377 107.281ZM165.304 108.026L165.743 107.785L165.742 107.784L165.304 108.026ZM170.631 96.5514L171.128 96.6072L171.184 96.1103L170.687 96.0545L170.631 96.5514ZM170.117 101.137L170.074 101.635L170.559 101.676L170.613 101.193L170.117 101.137ZM168.434 101.685L168.065 101.347L168.06 101.352L168.434 101.685ZM167.977 104.965L168.4 104.698L168.396 104.692L167.977 104.965ZM168.927 106.091C169.561 106.162 170.081 105.865 170.463 105.348L169.658 104.755C169.437 105.055 169.238 105.119 169.038 105.097L168.927 106.091ZM170.463 105.348C170.815 104.871 171.191 104.003 171.599 102.813L170.653 102.488C170.243 103.683 169.908 104.415 169.658 104.755L170.463 105.348ZM171.599 102.813C171.998 101.65 172.446 100.726 172.937 100.03L172.12 99.454C171.558 100.251 171.072 101.267 170.653 102.488L171.599 102.813ZM172.934 100.034C173.433 99.3394 173.982 98.8524 174.576 98.5489L174.121 97.6585C173.359 98.048 172.695 98.6531 172.122 99.4502L172.934 100.034ZM174.576 98.5489C175.16 98.2506 175.806 98.1367 176.532 98.2181L176.644 97.2244C175.739 97.1228 174.893 97.2639 174.121 97.6585L174.576 98.5489ZM176.532 98.2181C177.817 98.3623 178.806 98.9996 179.527 100.174L180.379 99.6504C179.505 98.2281 178.251 97.4048 176.644 97.2244L176.532 98.2181ZM179.529 100.176C180.262 101.357 180.55 102.852 180.342 104.702L181.336 104.814C181.562 102.802 181.259 101.066 180.378 99.6482L179.529 100.176ZM180.342 104.702C180.117 106.706 179.489 108.21 178.5 109.265L179.23 109.949C180.407 108.693 181.095 106.964 181.336 104.814L180.342 104.702ZM178.5 109.265C177.522 110.31 176.368 110.74 174.996 110.586L174.885 111.58C176.58 111.77 178.042 111.216 179.23 109.949L178.5 109.265ZM175.437 111.139L175.99 106.218L174.996 106.107L174.444 111.027L175.437 111.139ZM175.437 106.659C176.151 106.74 176.798 106.62 177.29 106.206C177.777 105.796 178.023 105.171 178.106 104.436L177.112 104.325C177.045 104.919 176.864 105.257 176.646 105.441C176.433 105.62 176.096 105.727 175.549 105.666L175.437 106.659ZM178.106 104.436C178.175 103.822 178.06 103.253 177.735 102.761L176.9 103.311C177.079 103.583 177.159 103.911 177.112 104.325L178.106 104.436ZM177.74 102.768C177.421 102.267 176.956 101.962 176.37 101.896L176.258 102.89C176.526 102.92 176.73 103.044 176.896 103.304L177.74 102.768ZM176.37 101.896C175.734 101.824 175.197 102.095 174.79 102.6L175.569 103.228C175.801 102.94 176.021 102.863 176.258 102.89L176.37 101.896ZM174.79 102.6C174.409 103.072 174.087 103.801 173.803 104.73L174.759 105.023C175.033 104.128 175.31 103.548 175.569 103.228L174.79 102.6ZM173.803 104.731C173.528 105.636 173.235 106.413 172.925 107.067L173.829 107.495C174.164 106.787 174.474 105.961 174.759 105.022L173.803 104.731ZM172.926 107.067C172.412 108.148 171.798 108.887 171.102 109.332C170.413 109.773 169.606 109.951 168.653 109.844L168.541 110.838C169.693 110.967 170.736 110.754 171.641 110.175C172.539 109.6 173.261 108.691 173.829 107.496L172.926 107.067ZM168.653 109.844C167.394 109.703 166.431 109.04 165.743 107.785L164.866 108.266C165.695 109.776 166.927 110.657 168.541 110.838L168.653 109.844ZM165.742 107.784C165.045 106.526 164.783 104.936 165.003 102.98L164.009 102.869C163.773 104.969 164.044 106.781 164.867 108.268L165.742 107.784ZM165.003 102.98C165.148 101.692 165.506 100.587 166.068 99.654L165.211 99.1382C164.564 100.212 164.167 101.46 164.009 102.869L165.003 102.98ZM166.068 99.654C166.633 98.7153 167.325 98.0314 168.139 97.5812L167.655 96.7061C166.667 97.2524 165.854 98.0702 165.211 99.1382L166.068 99.654ZM168.139 97.5812C168.96 97.1273 169.768 96.9576 170.575 97.0483L170.687 96.0545C169.651 95.9382 168.636 96.1634 167.655 96.7061L168.139 97.5812ZM170.134 96.4956L169.62 101.081L170.613 101.193L171.128 96.6072L170.134 96.4956ZM170.159 100.639C169.319 100.567 168.589 100.776 168.065 101.347L168.802 102.023C169.062 101.739 169.454 101.582 170.074 101.635L170.159 100.639ZM168.06 101.352C167.592 101.877 167.331 102.562 167.241 103.364L168.234 103.476C168.308 102.822 168.51 102.35 168.807 102.018L168.06 101.352ZM167.241 103.364C167.16 104.087 167.233 104.739 167.558 105.238L168.396 104.692C168.252 104.471 168.165 104.092 168.234 103.476L167.241 103.364ZM167.554 105.232C167.869 105.731 168.34 106.025 168.927 106.091L169.038 105.097C168.752 105.065 168.552 104.939 168.4 104.698L167.554 105.232Z" fill="white"/>
<path d="M167.129 120.363L167.224 120.854L167.86 120.732L167.581 120.147L167.129 120.363ZM166.282 118.586L166.733 118.371L166.644 118.184L166.449 118.115L166.282 118.586ZM162.029 117.081L161.557 116.914L161.391 117.386L161.862 117.552L162.029 117.081ZM163.676 112.427L163.843 111.956L163.371 111.789L163.205 112.261L163.676 112.427ZM184.9 119.94L185.372 120.106L185.538 119.635L185.067 119.468L184.9 119.94ZM183.253 124.593L183.086 125.065L183.558 125.231L183.725 124.76L183.253 124.593ZM171.985 120.605L172.152 120.134L170.746 119.636L171.568 120.881L171.985 120.605ZM172.44 121.294L172.866 121.032L172.862 121.025L172.858 121.019L172.44 121.294ZM175.562 126.346L176.034 126.513L176.114 126.287L175.988 126.084L175.562 126.346ZM173.588 131.925L173.155 132.176L173.698 133.113L174.059 132.092L173.588 131.925ZM169.295 124.517L169.728 124.266L169.543 123.947L169.184 124.029L169.295 124.517ZM158.524 126.982L158.053 126.815L157.75 127.672L158.636 127.469L158.524 126.982ZM160.411 121.652L160.317 121.161L160.035 121.215L159.94 121.485L160.411 121.652ZM167.581 120.147L166.733 118.371L165.831 118.802L166.678 120.578L167.581 120.147ZM166.449 118.115L162.196 116.61L161.862 117.552L166.115 119.058L166.449 118.115ZM162.5 117.248L164.147 112.594L163.205 112.261L161.557 116.914L162.5 117.248ZM163.509 112.899L184.733 120.411L185.067 119.468L163.843 111.956L163.509 112.899ZM184.429 119.773L182.782 124.426L183.725 124.76L185.372 120.106L184.429 119.773ZM183.42 124.122L172.152 120.134L171.818 121.076L183.086 125.065L183.42 124.122ZM171.568 120.881L172.023 121.57L172.858 121.019L172.402 120.33L171.568 120.881ZM172.015 121.557L175.137 126.609L175.988 126.084L172.866 121.032L172.015 121.557ZM175.091 126.18L173.117 131.758L174.059 132.092L176.034 126.513L175.091 126.18ZM174.021 131.675L169.728 124.266L168.863 124.767L173.155 132.176L174.021 131.675ZM169.184 124.029L158.413 126.495L158.636 127.469L169.407 125.004L169.184 124.029ZM158.996 127.149L160.882 121.819L159.94 121.485L158.053 126.815L158.996 127.149ZM160.505 122.143L167.224 120.854L167.035 119.872L160.317 121.161L160.505 122.143Z" fill="white"/>
<path d="M155.29 131.998L154.856 131.75L154.608 132.184L155.042 132.432L155.29 131.998ZM157.745 127.698L157.993 127.264L157.559 127.016L157.311 127.45L157.745 127.698ZM171.509 135.558L171.943 135.806L172.191 135.371L171.757 135.124L171.509 135.558ZM169.054 139.857L168.806 140.291L169.24 140.539L169.488 140.105L169.054 139.857ZM155.724 132.246L158.179 127.946L157.311 127.45L154.856 131.75L155.724 132.246ZM157.497 128.132L171.261 135.992L171.757 135.124L157.993 127.264L157.497 128.132ZM171.075 135.31L168.619 139.609L169.488 140.105L171.943 135.806L171.075 135.31ZM169.301 139.423L155.538 131.564L155.042 132.432L168.806 140.291L169.301 139.423ZM174.955 137.764C175.447 138.045 175.729 138.433 175.837 138.951L176.816 138.747C176.647 137.937 176.181 137.312 175.451 136.896L174.955 137.764ZM175.837 138.951C175.946 139.472 175.851 140.032 175.497 140.652L176.365 141.148C176.815 140.36 176.984 139.552 176.816 138.747L175.837 138.951ZM175.497 140.652C175.143 141.272 174.709 141.638 174.204 141.81L174.526 142.757C175.305 142.492 175.915 141.936 176.365 141.148L175.497 140.652ZM174.204 141.81C173.703 141.98 173.226 141.934 172.734 141.653L172.238 142.522C172.968 142.938 173.743 143.023 174.526 142.757L174.204 141.81ZM172.734 141.653C172.243 141.373 171.96 140.985 171.853 140.467L170.874 140.671C171.042 141.481 171.509 142.105 172.238 142.522L172.734 141.653ZM171.853 140.467C171.744 139.945 171.839 139.385 172.193 138.765L171.324 138.269C170.874 139.058 170.706 139.865 170.874 140.671L171.853 140.467ZM172.193 138.765C172.547 138.146 172.981 137.779 173.485 137.608L173.163 136.661C172.384 136.926 171.774 137.481 171.324 138.269L172.193 138.765ZM173.485 137.608C173.986 137.437 174.464 137.484 174.955 137.764L175.451 136.896C174.721 136.479 173.946 136.395 173.163 136.661L173.485 137.608Z" fill="white"/>
<path d="M150.373 139.102L149.973 138.803L149.673 139.203L150.073 139.502L150.373 139.102ZM153.344 135.142L153.644 134.742L153.244 134.442L152.944 134.842L153.344 135.142ZM171.344 148.641L171.744 148.941L172.044 148.541L171.644 148.241L171.344 148.641ZM168.373 152.602L168.073 153.002L168.473 153.302L168.773 152.902L168.373 152.602ZM150.773 139.402L153.744 135.442L152.944 134.842L149.973 138.803L150.773 139.402ZM153.044 135.542L171.044 149.041L171.644 148.241L153.644 134.742L153.044 135.542ZM170.944 148.341L167.973 152.302L168.773 152.902L171.744 148.941L170.944 148.341ZM168.673 152.202L150.673 138.702L150.073 139.502L168.073 153.002L168.673 152.202Z" fill="white"/>
<path d="M144.549 145.586L144.19 145.238L143.842 145.596L144.2 145.945L144.549 145.586ZM147.998 142.034L148.347 141.676L147.988 141.327L147.64 141.686L147.998 142.034ZM164.138 157.711L164.496 158.06L164.845 157.701L164.486 157.353L164.138 157.711ZM160.688 161.263L160.34 161.622L160.698 161.97L161.047 161.611L160.688 161.263ZM144.907 145.934L148.357 142.383L147.64 141.686L144.19 145.238L144.907 145.934ZM147.65 142.393L163.789 158.07L164.486 157.353L148.347 141.676L147.65 142.393ZM163.779 157.363L160.329 160.915L161.047 161.611L164.496 158.06L163.779 157.363ZM161.036 160.904L144.897 145.227L144.2 145.945L160.34 161.622L161.036 160.904Z" fill="white"/>
<path d="M134.186 167.074L133.755 167.327L133.76 167.335L134.186 167.074ZM133.466 163.846L132.987 163.705L132.986 163.708L133.466 163.846ZM138.098 161.116L138.21 160.628L138.202 160.627L138.098 161.116ZM140.246 162.726L140.678 162.473L140.673 162.465L140.246 162.726ZM140.126 163.51C140.593 164.307 140.698 165.073 140.48 165.837L141.442 166.111C141.742 165.056 141.578 164.01 140.989 163.004L140.126 163.51ZM140.48 165.837C140.262 166.604 139.755 167.239 138.904 167.737L139.409 168.6C140.446 167.993 141.142 167.165 141.442 166.111L140.48 165.837ZM138.904 167.737C138.02 168.255 137.214 168.395 136.462 168.222L136.238 169.197C137.29 169.438 138.355 169.218 139.409 168.6L138.904 167.737ZM136.462 168.222C135.707 168.049 135.092 167.597 134.613 166.813L133.76 167.335C134.361 168.318 135.188 168.956 136.238 169.197L136.462 168.222ZM134.618 166.821L134.307 166.29L133.444 166.796L133.755 167.327L134.618 166.821ZM134.307 166.29C133.838 165.491 133.734 164.732 133.947 163.983L132.986 163.708C132.688 164.753 132.856 165.792 133.444 166.796L134.307 166.29ZM133.946 163.986C134.164 163.245 134.68 162.611 135.564 162.093L135.058 161.23C134.004 161.848 133.29 162.669 132.987 163.705L133.946 163.986ZM135.564 162.093C136.43 161.586 137.232 161.442 137.993 161.605L138.202 160.627C137.152 160.402 136.096 160.622 135.058 161.23L135.564 162.093ZM137.986 161.603C138.744 161.777 139.352 162.223 139.82 162.987L140.673 162.465C140.08 161.496 139.256 160.869 138.21 160.628L137.986 161.603ZM139.815 162.979L140.126 163.51L140.989 163.004L140.678 162.473L139.815 162.979Z" fill="white"/>
<path d="M117.339 169.821L117.49 169.345L117.486 169.343L117.339 169.821ZM119.481 176.932L119.1 176.608L119.099 176.61L119.481 176.932ZM109.927 178.906L110.139 178.453L109.927 178.906ZM107.306 175.633L107.205 175.144L106.716 175.245L106.817 175.735L107.306 175.633ZM112.155 174.632L112.645 174.53L112.544 174.041L112.054 174.142L112.155 174.632ZM115.694 175.396L115.308 175.078L115.302 175.085L115.694 175.396ZM113.001 173.081L112.992 172.581L112.991 172.581L113.001 173.081ZM110.435 172.968L110.372 173.464L110.372 173.464L110.435 172.968ZM107.222 165.524L107.587 165.866L107.588 165.865L107.222 165.524ZM119.783 167.028L119.884 167.517L120.374 167.416L120.273 166.926L119.783 167.028ZM115.264 167.961L114.778 168.075L114.889 168.549L115.366 168.451L115.264 167.961ZM114.221 166.531L114.428 166.076L114.421 166.073L114.221 166.531ZM110.961 167.115L111.346 167.434L111.351 167.429L110.961 167.115ZM110.186 168.367C110.315 168.993 110.759 169.395 111.368 169.597L111.683 168.648C111.329 168.531 111.206 168.362 111.165 168.165L110.186 168.367ZM111.368 169.597C111.931 169.784 112.873 169.872 114.131 169.89L114.146 168.89C112.883 168.872 112.083 168.781 111.683 168.648L111.368 169.597ZM114.131 169.89C115.361 169.909 116.378 170.049 117.192 170.299L117.486 169.343C116.554 169.057 115.437 168.91 114.146 168.89L114.131 169.89ZM117.188 170.298C118.002 170.556 118.636 170.927 119.108 171.397L119.814 170.688C119.207 170.085 118.426 169.642 117.49 169.345L117.188 170.298ZM119.108 171.397C119.573 171.86 119.882 172.439 120.03 173.154L121.009 172.952C120.825 172.06 120.428 171.3 119.814 170.688L119.108 171.397ZM120.03 173.154C120.291 174.42 119.993 175.558 119.1 176.608L119.862 177.256C120.943 175.984 121.336 174.536 121.009 172.952L120.03 173.154ZM119.099 176.61C118.204 177.674 116.872 178.412 115.048 178.788L115.251 179.768C117.234 179.358 118.789 178.532 119.864 177.254L119.099 176.61ZM115.048 178.788C113.074 179.196 111.449 179.066 110.139 178.453L109.715 179.359C111.275 180.088 113.132 180.205 115.251 179.768L115.048 178.788ZM110.139 178.453C108.842 177.847 108.075 176.884 107.796 175.532L106.817 175.735C107.162 177.405 108.142 178.624 109.715 179.359L110.139 178.453ZM107.408 176.123L112.256 175.121L112.054 174.142L107.205 175.144L107.408 176.123ZM111.666 174.733C111.811 175.437 112.125 176.014 112.672 176.354C113.213 176.689 113.883 176.73 114.607 176.58L114.405 175.601C113.819 175.722 113.442 175.654 113.199 175.504C112.963 175.357 112.756 175.07 112.645 174.53L111.666 174.733ZM114.607 176.58C115.213 176.455 115.717 176.169 116.085 175.708L115.302 175.085C115.1 175.339 114.813 175.516 114.405 175.601L114.607 176.58ZM116.08 175.714C116.457 175.256 116.603 174.719 116.483 174.141L115.504 174.344C115.559 174.608 115.504 174.84 115.308 175.078L116.08 175.714ZM116.483 174.141C116.354 173.514 115.93 173.088 115.324 172.858L114.969 173.793C115.315 173.924 115.456 174.11 115.504 174.344L116.483 174.141ZM115.324 172.858C114.756 172.643 113.964 172.563 112.992 172.581L113.011 173.581C113.946 173.563 114.584 173.647 114.969 173.793L115.324 172.858ZM112.991 172.581C112.046 172.6 111.216 172.563 110.498 172.472L110.372 173.464C111.15 173.562 112.03 173.6 113.012 173.581L112.991 172.581ZM110.499 172.472C109.312 172.319 108.419 171.964 107.779 171.441C107.147 170.923 106.727 170.211 106.532 169.272L105.553 169.474C105.788 170.61 106.314 171.535 107.146 172.215C107.971 172.89 109.059 173.295 110.372 173.464L110.499 172.472ZM106.532 169.272C106.276 168.032 106.608 166.911 107.587 165.866L106.857 165.182C105.679 166.439 105.224 167.883 105.553 169.474L106.532 169.272ZM107.588 165.865C108.568 164.813 109.997 164.07 111.925 163.672L111.723 162.693C109.653 163.121 108.014 163.94 106.856 165.184L107.588 165.865ZM111.925 163.672C113.195 163.41 114.357 163.408 115.418 163.652L115.642 162.677C114.42 162.396 113.111 162.406 111.723 162.693L111.925 163.672ZM115.418 163.652C116.485 163.898 117.35 164.343 118.031 164.978L118.712 164.246C117.886 163.476 116.857 162.957 115.642 162.677L115.418 163.652ZM118.031 164.978C118.717 165.617 119.129 166.333 119.293 167.129L120.273 166.926C120.062 165.905 119.533 165.01 118.712 164.246L118.031 164.978ZM119.682 166.538L115.163 167.472L115.366 168.451L119.884 167.517L119.682 166.538ZM115.751 167.847C115.559 167.026 115.134 166.397 114.428 166.076L114.014 166.987C114.365 167.146 114.635 167.469 114.778 168.075L115.751 167.847ZM114.421 166.073C113.777 165.791 113.045 165.755 112.255 165.919L112.457 166.898C113.101 166.765 113.612 166.811 114.021 166.989L114.421 166.073ZM112.255 165.919C111.542 166.066 110.946 166.337 110.572 166.802L111.351 167.429C111.516 167.223 111.85 167.023 112.457 166.898L112.255 165.919ZM110.576 166.796C110.199 167.25 110.066 167.789 110.186 168.367L111.165 168.165C111.107 167.883 111.164 167.654 111.346 167.434L110.576 166.796Z" fill="white"/>
<path d="M95.7394 171.08L95.3013 171.321L95.6133 171.888L96.0833 171.443L95.7394 171.08ZM97.1681 169.727L97.512 170.09L97.6623 169.947L97.6679 169.74L97.1681 169.727ZM97.29 165.217L97.3035 164.717L96.8037 164.703L96.7902 165.203L97.29 165.217ZM102.225 165.35L102.725 165.364L102.738 164.864L102.238 164.85L102.225 165.35ZM101.616 187.856L101.603 188.356L102.103 188.37L102.116 187.87L101.616 187.856ZM96.6818 187.723L96.1819 187.71L96.1684 188.209L96.6682 188.223L96.6818 187.723ZM97.0047 175.774L97.5045 175.788L97.5448 174.297L96.614 175.462L97.0047 175.774ZM96.489 176.42L96.8701 176.743L96.875 176.738L96.8796 176.732L96.489 176.42ZM92.6446 180.947L92.6311 181.446L92.8706 181.453L93.0257 181.27L92.6446 180.947ZM86.7288 180.787L86.357 180.452L85.6331 181.257L86.7153 181.286L86.7288 180.787ZM92.4546 174.42L92.8264 174.755L93.0729 174.481L92.8839 174.164L92.4546 174.42ZM86.7909 164.933L86.8044 164.433L85.8955 164.409L86.3616 165.189L86.7909 164.933ZM92.4431 165.086L92.8813 164.845L92.7431 164.594L92.4566 164.586L92.4431 165.086ZM96.0833 171.443L97.512 170.09L96.8242 169.364L95.3955 170.717L96.0833 171.443ZM97.6679 169.74L97.7898 165.23L96.7902 165.203L96.6683 169.713L97.6679 169.74ZM97.2765 165.716L102.211 165.85L102.238 164.85L97.3035 164.717L97.2765 165.716ZM101.725 165.337L101.117 187.843L102.116 187.87L102.725 165.364L101.725 165.337ZM101.63 187.357L96.6953 187.223L96.6682 188.223L101.603 188.356L101.63 187.357ZM97.1816 187.737L97.5045 175.788L96.5048 175.761L96.1819 187.71L97.1816 187.737ZM96.614 175.462L96.0983 176.108L96.8796 176.732L97.3953 176.086L96.614 175.462ZM96.1079 176.096L92.2635 180.623L93.0257 181.27L96.8701 176.743L96.1079 176.096ZM92.6581 180.447L86.7423 180.287L86.7153 181.286L92.6311 181.446L92.6581 180.447ZM87.1005 181.121L92.8264 174.755L92.0829 174.086L86.357 180.452L87.1005 181.121ZM92.8839 174.164L87.2202 164.677L86.3616 165.189L92.0253 174.677L92.8839 174.164ZM86.7774 165.433L92.4296 165.585L92.4566 164.586L86.8044 164.433L86.7774 165.433ZM92.005 165.327L95.3013 171.321L96.1775 170.839L92.8813 164.845L92.005 165.327Z" fill="white"/>
<path d="M81.0418 163.427L81.1429 162.937L80.6533 162.836L80.5521 163.326L81.0418 163.427ZM85.8905 164.429L86.3802 164.53L86.4813 164.04L85.9917 163.939L85.8905 164.429ZM82.6834 179.951L82.5823 180.44L83.0719 180.541L83.1731 180.052L82.6834 179.951ZM77.8347 178.949L77.345 178.848L77.2438 179.337L77.7335 179.438L77.8347 178.949ZM80.9406 163.917L85.7893 164.919L85.9917 163.939L81.1429 162.937L80.9406 163.917ZM85.4009 164.328L82.1938 179.849L83.1731 180.052L86.3802 164.53L85.4009 164.328ZM82.7846 179.461L77.9358 178.459L77.7335 179.438L82.5823 180.44L82.7846 179.461ZM78.3243 179.05L81.5314 163.528L80.5521 163.326L77.345 178.848L78.3243 179.05ZM81.6537 183.911C81.5392 184.465 81.2578 184.854 80.799 185.117L81.2963 185.985C82.0139 185.573 82.463 184.936 82.633 184.113L81.6537 183.911ZM80.799 185.117C80.3366 185.382 79.7747 185.465 79.0758 185.321L78.8735 186.3C79.7622 186.484 80.5823 186.394 81.2963 185.985L80.799 185.117ZM79.0758 185.321C78.377 185.177 77.8941 184.878 77.5746 184.451L76.7742 185.05C77.2675 185.709 77.9848 186.117 78.8735 186.3L79.0758 185.321ZM77.5746 184.451C77.2576 184.028 77.1533 183.559 77.2678 183.005L76.2885 182.803C76.1185 183.625 76.2783 184.388 76.7742 185.05L77.5746 184.451ZM77.2678 183.005C77.3824 182.451 77.6638 182.062 78.1226 181.799L77.6252 180.931C76.9076 181.343 76.4586 181.98 76.2885 182.803L77.2678 183.005ZM78.1226 181.799C78.585 181.534 79.1469 181.451 79.8457 181.595L80.048 180.616C79.1593 180.432 78.3393 180.522 77.6252 180.931L78.1226 181.799ZM79.8457 181.595C80.5445 181.739 81.0275 182.038 81.3469 182.465L82.1474 181.866C81.654 181.207 80.9368 180.799 80.048 180.616L79.8457 181.595ZM81.3469 182.465C81.6639 182.888 81.7682 183.357 81.6537 183.911L82.633 184.113C82.8031 183.291 82.6432 182.528 82.1474 181.866L81.3469 182.465Z" fill="white"/>
<path d="M72.7341 160.94L72.8956 160.467L72.4224 160.305L72.2609 160.779L72.7341 160.94ZM77.4199 162.539L77.8931 162.701L78.0546 162.228L77.5814 162.066L77.4199 162.539ZM70.1525 183.833L69.991 184.306L70.4642 184.468L70.6257 183.995L70.1525 183.833ZM65.4667 182.234L64.9935 182.073L64.832 182.546L65.3052 182.707L65.4667 182.234ZM72.5726 161.413L77.2584 163.012L77.5814 162.066L72.8956 160.467L72.5726 161.413ZM76.9467 162.378L69.6793 183.672L70.6257 183.995L77.8931 162.701L76.9467 162.378ZM70.314 183.36L65.6282 181.761L65.3052 182.707L69.991 184.306L70.314 183.36ZM65.9399 182.396L73.2073 161.102L72.2609 160.779L64.9935 182.073L65.9399 182.396Z" fill="white"/>
<path d="M64.8317 157.422L65.0519 156.973L64.603 156.753L64.3828 157.202L64.8317 157.422ZM69.277 159.602L69.726 159.822L69.9461 159.373L69.4972 159.153L69.277 159.602ZM59.3693 179.803L59.1491 180.252L59.598 180.472L59.8182 180.024L59.3693 179.803ZM54.924 177.623L54.4751 177.403L54.2549 177.852L54.7038 178.072L54.924 177.623ZM64.6116 157.871L69.0569 160.051L69.4972 159.153L65.0519 156.973L64.6116 157.871ZM68.8281 159.382L58.9204 179.583L59.8182 180.024L69.726 159.822L68.8281 159.382ZM59.5895 179.354L55.1442 177.174L54.7038 178.072L59.1491 180.252L59.5895 179.354ZM55.3729 177.843L65.2807 157.642L64.3828 157.202L54.4751 177.403L55.3729 177.843Z" fill="white"/>
<path d="M41.2588 154.21L40.8853 153.878L40.8791 153.885L41.2588 154.21ZM44.1077 152.529L44.0935 152.03L44.0897 152.03L44.1077 152.529ZM48.1333 156.093L48.6314 156.049L48.6306 156.041L48.1333 156.093ZM47.2644 158.633L47.6379 158.966L47.6442 158.958L47.2644 158.633ZM46.4818 158.76C45.8674 159.451 45.1711 159.787 44.3767 159.815L44.413 160.815C45.5099 160.775 46.4539 160.296 47.2288 159.425L46.4818 158.76ZM44.3767 159.815C43.5799 159.844 42.8202 159.558 42.0833 158.902L41.4184 159.649C42.3156 160.448 43.3185 160.854 44.413 160.815L44.3767 159.815ZM42.0833 158.902C41.3181 158.221 40.9364 157.498 40.8685 156.729L39.8724 156.817C39.9672 157.892 40.5058 158.837 41.4184 159.649L42.0833 158.902ZM40.8685 156.729C40.8004 155.957 41.0411 155.233 41.6385 154.535L40.8791 153.885C40.1294 154.76 39.7778 155.744 39.8724 156.817L40.8685 156.729ZM41.6323 154.543L42.0414 154.083L41.2943 153.418L40.8853 153.878L41.6323 154.543ZM42.0414 154.083C42.6574 153.391 43.3472 153.057 44.1256 153.029L44.0897 152.03C43.0044 152.069 42.0677 152.549 41.2943 153.418L42.0414 154.083ZM44.1218 153.029C44.8937 153.007 45.6565 153.303 46.4217 153.984L47.0865 153.237C46.1738 152.424 45.1723 151.999 44.0935 152.03L44.1218 153.029ZM46.4217 153.984C47.1716 154.651 47.556 155.37 47.6359 156.144L48.6306 156.041C48.5203 154.973 47.9852 154.036 47.0865 153.237L46.4217 153.984ZM47.6352 156.136C47.7035 156.911 47.4671 157.628 46.8845 158.308L47.6442 158.958C48.3829 158.096 48.7257 157.118 48.6313 156.049L47.6352 156.136ZM46.8909 158.301L46.4818 158.76L47.2288 159.425L47.6379 158.966L46.8909 158.301Z" fill="white"/>
<path d="M33.4103 139.009L33.9103 139.005L33.9103 139.001L33.4103 139.009ZM27.3133 143.25L27.5031 142.787L27.5007 142.786L27.3133 143.25ZM22.4756 134.778L22.9719 134.839L22.4756 134.778ZM24.775 131.272L25.2092 131.024L24.9613 130.59L24.5271 130.838L24.775 131.272ZM27.2302 135.571L27.4782 136.006L27.9123 135.758L27.6644 135.324L27.2302 135.571ZM27.5998 139.173L27.7824 138.707L27.7746 138.704L27.5998 139.173ZM28.9671 135.895L29.4395 135.732L29.4392 135.731L28.9671 135.895ZM28.2792 133.421L27.7879 133.514L27.7881 133.514L28.2792 133.421ZM34.3602 128.059L34.148 128.512L34.1497 128.512L34.3602 128.059ZM36.8239 140.467L36.3897 140.715L36.6376 141.149L37.0718 140.901L36.8239 140.467ZM34.5358 136.46L34.2763 136.033L33.8602 136.285L34.1016 136.708L34.5358 136.46ZM35.5718 135.025L36.0688 135.081L36.0695 135.074L35.5718 135.025ZM34.0065 132.107L33.8223 132.572L33.829 132.574L34.0065 132.107ZM32.5757 131.758C32.0213 132.074 31.7761 132.621 31.7728 133.263L32.7728 133.268C32.7747 132.895 32.8967 132.726 33.0716 132.626L32.5757 131.758ZM31.7728 133.263C31.7698 133.856 31.9784 134.779 32.3504 135.981L33.3057 135.685C32.9322 134.479 32.7707 133.69 32.7728 133.268L31.7728 133.263ZM32.3504 135.981C32.714 137.156 32.896 138.166 32.9104 139.018L33.9103 139.001C33.8938 138.026 33.6875 136.919 33.3057 135.685L32.3504 135.981ZM32.9104 139.013C32.9169 139.868 32.7605 140.585 32.46 141.18L33.3527 141.631C33.7382 140.867 33.9178 139.987 33.9103 139.005L32.9104 139.013ZM32.46 141.18C32.1647 141.765 31.7095 142.238 31.0754 142.601L31.5713 143.469C32.3619 143.017 32.962 142.405 33.3527 141.631L32.46 141.18ZM31.0754 142.601C29.9527 143.242 28.7781 143.31 27.5031 142.787L27.1236 143.712C28.668 144.346 30.1668 144.271 31.5713 143.469L31.0754 142.601ZM27.5007 142.786C26.212 142.265 25.0979 141.227 24.1747 139.61L23.3063 140.106C24.3104 141.865 25.5782 143.088 27.1259 143.713L27.5007 142.786ZM24.1747 139.61C23.1748 137.859 22.7956 136.274 22.9719 134.839L21.9793 134.717C21.7695 136.426 22.2335 138.228 23.3063 140.106L24.1747 139.61ZM22.9719 134.839C23.1463 133.418 23.8243 132.391 25.023 131.706L24.5271 130.838C23.0459 131.684 22.191 132.993 21.9793 134.717L22.9719 134.839ZM24.3408 131.52L26.796 135.819L27.6644 135.324L25.2092 131.024L24.3408 131.52ZM26.9823 135.137C26.3581 135.494 25.9063 135.971 25.7531 136.596C25.6015 137.215 25.7707 137.864 26.1375 138.506L27.0059 138.011C26.7092 137.491 26.6565 137.112 26.7244 136.834C26.7907 136.564 26.9998 136.279 27.4782 136.006L26.9823 135.137ZM26.1375 138.506C26.4441 139.043 26.8723 139.435 27.425 139.641L27.7746 138.704C27.4698 138.591 27.2126 138.373 27.0059 138.011L26.1375 138.506ZM27.4172 139.638C27.9701 139.855 28.5258 139.827 29.0378 139.535L28.542 138.666C28.3077 138.8 28.07 138.82 27.7824 138.707L27.4172 139.638ZM29.0378 139.535C29.5936 139.217 29.8673 138.682 29.8983 138.034L28.8995 137.986C28.8817 138.356 28.7494 138.548 28.542 138.666L29.0378 139.535ZM29.8983 138.034C29.9274 137.428 29.7577 136.65 29.4395 135.732L28.4946 136.059C28.801 136.943 28.9192 137.575 28.8995 137.986L29.8983 138.034ZM29.4392 135.731C29.1281 134.838 28.9062 134.037 28.7703 133.327L27.7881 133.514C27.9352 134.284 28.1719 135.133 28.4949 136.06L29.4392 135.731ZM28.7705 133.327C28.5476 132.152 28.6081 131.192 28.9074 130.422C29.2036 129.66 29.7504 129.04 30.5836 128.565L30.0878 127.696C29.0808 128.271 28.3647 129.058 27.9754 130.06C27.5892 131.053 27.5415 132.213 27.788 133.514L28.7705 133.327ZM30.5836 128.565C31.6831 127.937 32.8517 127.904 34.148 128.512L34.5723 127.606C33.0129 126.875 31.4985 126.891 30.0878 127.696L30.5836 128.565ZM34.1497 128.512C35.4539 129.118 36.6027 130.247 37.5787 131.956L38.4471 131.46C37.399 129.625 36.1126 128.321 34.5707 127.605L34.1497 128.512ZM37.5787 131.956C38.2218 133.082 38.5838 134.186 38.6803 135.27L39.6764 135.182C39.5652 133.933 39.1503 132.692 38.4471 131.46L37.5787 131.956ZM38.6803 135.27C38.7774 136.362 38.6218 137.322 38.2298 138.166L39.1366 138.587C39.6124 137.563 39.7869 136.424 39.6764 135.182L38.6803 135.27ZM38.2298 138.166C37.8345 139.016 37.2818 139.63 36.576 140.033L37.0718 140.901C37.9773 140.384 38.6641 139.604 39.1366 138.587L38.2298 138.166ZM37.2581 140.219L34.97 136.212L34.1016 136.708L36.3897 140.715L37.2581 140.219ZM34.7952 136.888C35.5157 136.45 35.9827 135.851 36.0687 135.081L35.0749 134.97C35.0322 135.353 34.8085 135.71 34.2763 136.033L34.7952 136.888ZM36.0695 135.074C36.1379 134.374 35.9455 133.667 35.5451 132.966L34.6767 133.462C35.0027 134.032 35.1176 134.533 35.0742 134.977L36.0695 135.074ZM35.5451 132.966C35.1842 132.334 34.7411 131.851 34.1841 131.639L33.829 132.574C34.0761 132.668 34.3693 132.923 34.6767 133.462L35.5451 132.966ZM34.1907 131.642C33.6419 131.425 33.0886 131.465 32.5757 131.758L33.0716 132.626C33.3219 132.483 33.5573 132.467 33.8223 132.572L34.1907 131.642Z" fill="white"/>
<path d="M25.6313 119.229L25.2654 118.888L24.8241 119.362L25.3941 119.669L25.6313 119.229ZM27.3638 120.162L27.1266 120.602L27.3089 120.701L27.5073 120.641L27.3638 120.162ZM31.6856 118.867L32.1646 118.724L32.021 118.245L31.5421 118.388L31.6856 118.867ZM33.1027 123.596L33.2462 124.075L33.7252 123.931L33.5816 123.452L33.1027 123.596ZM11.5356 130.059L11.0566 130.202L11.2002 130.681L11.6791 130.538L11.5356 130.059ZM10.1185 125.33L9.97499 124.851L9.49604 124.995L9.63956 125.474L10.1185 125.33ZM21.5686 121.899L21.7121 122.378L23.1405 121.95L21.7428 121.43L21.5686 121.899ZM20.7942 121.611L20.606 122.074L20.6129 122.077L20.62 122.08L20.7942 121.611ZM15.292 119.376L14.8131 119.519L14.8819 119.749L15.1038 119.839L15.292 119.376ZM13.5932 113.707L13.7945 113.249L12.8035 112.813L13.1143 113.85L13.5932 113.707ZM21.4311 117.154L21.2298 117.611L21.5673 117.76L21.8089 117.481L21.4311 117.154ZM28.6707 108.806L29.1496 108.663L28.8886 107.792L28.293 108.479L28.6707 108.806ZM30.2938 114.223L30.6597 114.563L30.855 114.354L30.7727 114.079L30.2938 114.223ZM25.3941 119.669L27.1266 120.602L27.601 119.722L25.8685 118.789L25.3941 119.669ZM27.5073 120.641L31.8291 119.346L31.5421 118.388L27.2202 119.683L27.5073 120.641ZM31.2067 119.011L32.6237 123.739L33.5816 123.452L32.1646 118.724L31.2067 119.011ZM32.9591 123.117L11.3921 129.58L11.6791 130.538L33.2462 124.075L32.9591 123.117ZM12.0145 129.915L10.5975 125.187L9.63956 125.474L11.0566 130.202L12.0145 129.915ZM10.262 125.809L21.7121 122.378L21.4251 121.42L9.97499 124.851L10.262 125.809ZM21.7428 121.43L20.9684 121.142L20.62 122.08L21.3944 122.368L21.7428 121.43ZM20.9824 121.148L15.4802 118.912L15.1038 119.839L20.606 122.074L20.9824 121.148ZM15.771 119.232L14.0722 113.563L13.1143 113.85L14.8131 119.519L15.771 119.232ZM13.392 114.165L21.2298 117.611L21.6324 116.696L13.7945 113.249L13.392 114.165ZM21.8089 117.481L29.0484 109.134L28.293 108.479L21.0534 116.826L21.8089 117.481ZM28.1917 108.95L29.8148 114.366L30.7727 114.079L29.1496 108.663L28.1917 108.95ZM29.9279 113.882L25.2654 118.888L25.9972 119.57L30.6597 114.563L29.9279 113.882Z" fill="white"/>
<path d="M28.3189 102.827L28.8158 102.771L28.76 102.274L28.2631 102.33L28.3189 102.827ZM28.8712 107.747L28.927 108.244L29.4239 108.188L29.3681 107.691L28.8712 107.747ZM13.1205 109.515L12.6237 109.571L12.6794 110.068L13.1763 110.012L13.1205 109.515ZM12.5682 104.595L12.5124 104.098L12.0156 104.154L12.0713 104.651L12.5682 104.595ZM27.822 102.883L28.3743 107.803L29.3681 107.691L28.8158 102.771L27.822 102.883ZM28.8154 107.25L13.0648 109.018L13.1763 110.012L28.927 108.244L28.8154 107.25ZM13.6174 109.459L13.0651 104.539L12.0713 104.651L12.6237 109.571L13.6174 109.459ZM12.624 105.092L28.3747 103.324L28.2631 102.33L12.5124 104.098L12.624 105.092ZM9.03604 109.765C8.47363 109.828 8.0167 109.682 7.62432 109.327L6.95391 110.069C7.56766 110.624 8.31253 110.853 9.14759 110.759L9.03604 109.765ZM7.62432 109.327C7.22886 108.97 6.97538 108.461 6.89577 107.752L5.90202 107.864C6.00325 108.766 6.34325 109.517 6.95391 110.069L7.62432 109.327ZM6.89577 107.752C6.81617 107.043 6.95063 106.491 7.25703 106.055L6.4388 105.48C5.96567 106.154 5.80078 106.962 5.90202 107.864L6.89577 107.752ZM7.25703 106.055C7.56104 105.622 7.97404 105.378 8.53645 105.315L8.4249 104.321C7.58983 104.415 6.91433 104.803 6.4388 105.48L7.25703 106.055ZM8.53645 105.315C9.09885 105.252 9.55579 105.399 9.94817 105.753L10.6186 105.011C10.0048 104.457 9.25996 104.227 8.4249 104.321L8.53645 105.315ZM9.94817 105.753C10.3436 106.11 10.5971 106.619 10.6767 107.328L11.6705 107.216C11.5692 106.314 11.2292 105.563 10.6186 105.011L9.94817 105.753ZM10.6767 107.328C10.7563 108.037 10.6219 108.589 10.3155 109.025L11.1337 109.6C11.6068 108.926 11.7717 108.118 11.6705 107.216L10.6767 107.328ZM10.3155 109.025C10.0114 109.458 9.59845 109.702 9.03604 109.765L9.14759 110.759C9.98266 110.665 10.6582 110.277 11.1337 109.6L10.3155 109.025Z" fill="white"/>
<path d="M28.0984 94.0002L28.5984 94.008L28.6061 93.508L28.1062 93.5003L28.0984 94.0002ZM28.022 98.9508L28.0143 99.4508L28.5142 99.4585L28.5219 98.9585L28.022 98.9508ZM5.52468 98.6034L5.02473 98.5957L5.01701 99.0956L5.51696 99.1034L5.52468 98.6034ZM5.60112 93.6528L5.60884 93.1529L5.1089 93.1452L5.10118 93.6451L5.60112 93.6528ZM27.5985 93.9925L27.5221 98.9431L28.5219 98.9585L28.5984 94.008L27.5985 93.9925ZM28.0297 98.4509L5.53239 98.1035L5.51696 99.1034L28.0143 99.4508L28.0297 98.4509ZM6.02462 98.6111L6.10106 93.6606L5.10118 93.6451L5.02473 98.5957L6.02462 98.6111ZM5.5934 94.1528L28.0907 94.5002L28.1062 93.5003L5.60884 93.1529L5.5934 94.1528Z" fill="white"/>
<path d="M28.9893 85.2732L29.4842 85.3442L29.5552 84.8493L29.0603 84.7783L28.9893 85.2732ZM28.2861 90.1742L28.2151 90.6691L28.71 90.7402L28.781 90.2452L28.2861 90.1742ZM6.01418 86.9785L5.51925 86.9075L5.44823 87.4024L5.94316 87.4734L6.01418 86.9785ZM6.71741 82.0775L6.78842 81.5826L6.29349 81.5116L6.22247 82.0065L6.71741 82.0775ZM28.4944 85.2022L27.7911 90.1032L28.781 90.2452L29.4842 85.3442L28.4944 85.2022ZM28.3571 89.6793L6.08519 86.4835L5.94316 87.4734L28.2151 90.6691L28.3571 89.6793ZM6.50911 87.0495L7.21234 82.1485L6.22247 82.0065L5.51925 86.9075L6.50911 87.0495ZM6.64639 82.5724L28.9183 85.7682L29.0603 84.7783L6.78842 81.5826L6.64639 82.5724Z" fill="white"/>
<path d="M24.6932 61.9532L24.8949 61.4955L24.8862 61.4919L24.6932 61.9532ZM27.1676 64.1481L27.639 63.9811L27.6377 63.9775L27.1676 64.1481ZM25.0132 69.0735L25.208 69.534L25.2148 69.531L25.0132 69.0735ZM22.3284 69.0269L22.1267 69.4846L22.1356 69.4883L22.3284 69.0269ZM21.967 68.3213C21.1213 67.9486 20.5878 67.3891 20.3164 66.642L19.3765 66.9834C19.7513 68.0151 20.4971 68.7663 21.5638 69.2364L21.967 68.3213ZM20.3164 66.642C20.0442 65.8925 20.0832 65.0817 20.481 64.1789L19.5659 63.7757C19.0816 64.8746 19.0026 65.954 19.3765 66.9834L20.3164 66.642ZM20.481 64.1789C20.8941 63.2416 21.4652 62.6561 22.1764 62.3553L21.7869 61.4343C20.7929 61.8547 20.0586 62.6576 19.5659 63.7757L20.481 64.1789ZM22.1764 62.3553C22.8899 62.0535 23.6531 62.06 24.5003 62.4144L24.8862 61.4919C23.8231 61.0472 22.7786 61.0148 21.7869 61.4343L22.1764 62.3553ZM24.4916 62.4107L25.0546 62.6588L25.4579 61.7437L24.8949 61.4956L24.4916 62.4107ZM25.0546 62.6588C25.9025 63.0325 26.4319 63.5865 26.6976 64.3187L27.6377 63.9775C27.2672 62.9567 26.5224 62.2128 25.4579 61.7437L25.0546 62.6588ZM26.6963 64.3151C26.9542 65.0429 26.9076 65.8595 26.4945 66.7969L27.4096 67.2001C27.9023 66.0821 27.9994 64.9984 27.6389 63.9811L26.6963 64.3151ZM26.4945 66.7969C26.0897 67.7156 25.5237 68.3021 24.8115 68.616L25.2148 69.531C26.1979 69.0978 26.9244 68.3011 27.4096 67.2001L26.4945 66.7969ZM24.8184 68.613C24.1023 68.9159 23.3477 68.911 22.5212 68.5656L22.1356 69.4883C23.1836 69.9262 24.2188 69.9524 25.208 69.534L24.8184 68.613ZM22.53 68.5694L21.967 68.3213L21.5638 69.2364L22.1268 69.4845L22.53 68.5694Z" fill="white"/>
<path d="M36.6952 49.8042L36.8531 50.2787L36.8576 50.2771L36.6952 49.8042ZM30.7796 45.3139L31.2782 45.3516L31.2784 45.3491L30.7796 45.3139ZM37.3446 38.0974L37.4398 38.5882L37.3446 38.0974ZM41.3891 39.2024L41.759 39.5389L42.0955 39.169L41.7256 38.8325L41.3891 39.2024ZM38.0574 42.8648L37.7209 43.2347L38.0908 43.5711L38.4272 43.2013L38.0574 42.8648ZM34.7461 44.3279L35.2452 44.3579L35.2456 44.3496L34.7461 44.3279ZM38.2854 44.6169L38.5869 45.0157L38.5876 45.0152L38.2854 44.6169ZM40.427 43.1987L40.1869 42.7602L40.1862 42.7605L40.427 43.1987ZM47.404 47.3278L46.9078 47.2657L46.9076 47.2675L47.404 47.3278ZM36.3619 53.5012L35.992 53.1647L35.6555 53.5346L36.0254 53.8711L36.3619 53.5012ZM39.4669 50.088L39.7934 49.7093L39.4247 49.3914L39.0971 49.7515L39.4669 50.088ZM41.1517 50.6305L41.2523 51.1203L41.259 51.1189L41.1517 50.6305ZM43.4445 48.2408L42.9454 48.2091L42.9451 48.2162L43.4445 48.2408ZM43.3349 46.7721C42.8627 46.3425 42.2672 46.2779 41.6553 46.4731L41.9592 47.4258C42.3144 47.3125 42.513 47.3763 42.662 47.5118L43.3349 46.7721ZM41.6553 46.4731C41.0901 46.6533 40.2767 47.1366 39.2485 47.8613L39.8246 48.6787C40.8569 47.9511 41.5573 47.554 41.9592 47.4258L41.6553 46.4731ZM39.2485 47.8613C38.2433 48.5698 37.3387 49.0546 36.5328 49.3313L36.8576 50.2771C37.7795 49.9606 38.7692 49.4226 39.8246 48.6787L39.2485 47.8613ZM36.5372 49.3298C35.7261 49.5999 34.9957 49.6725 34.3368 49.5704L34.1837 50.5586C35.0291 50.6896 35.9219 50.5887 36.8531 50.2786L36.5372 49.3298ZM34.3368 49.5704C33.6893 49.4701 33.0985 49.1832 32.5584 48.6919L31.8854 49.4316C32.5589 50.0442 33.327 50.4259 34.1837 50.5586L34.3368 49.5704ZM32.5584 48.6919C31.602 47.8219 31.1744 46.7258 31.2782 45.3516L30.2811 45.2762C30.1553 46.9407 30.6891 48.3432 31.8854 49.4316L32.5584 48.6919ZM31.2784 45.3491C31.3762 43.9625 32.0196 42.5824 33.2725 41.2051L32.5328 40.5322C31.1702 42.03 30.3983 43.6134 30.2809 45.2787L31.2784 45.3491ZM33.2725 41.2051C34.6294 39.7136 36.0199 38.8637 37.4398 38.5882L37.2494 37.6065C35.5593 37.9344 33.9886 38.932 32.5328 40.5322L33.2725 41.2051ZM37.4398 38.5882C38.8448 38.3157 40.0317 38.6434 41.0527 39.5722L41.7256 38.8325C40.4639 37.6848 38.9545 37.2758 37.2494 37.6065L37.4398 38.5882ZM41.0193 38.8659L37.6875 42.5284L38.4272 43.2013L41.759 39.5389L41.0193 38.8659ZM38.3938 42.495C37.8622 42.0113 37.2685 41.729 36.6266 41.7762C35.9914 41.8229 35.4262 42.1842 34.9284 42.7314L35.6681 43.4043C36.0707 42.9618 36.4154 42.7944 36.7 42.7735C36.9778 42.7531 37.3135 42.864 37.7209 43.2347L38.3938 42.495ZM34.9284 42.7314C34.5124 43.1887 34.2721 43.7169 34.2465 44.3062L35.2456 44.3496C35.2597 44.0246 35.3876 43.7127 35.6681 43.4043L34.9284 42.7314ZM34.247 44.2979C34.2113 44.8908 34.4096 45.4107 34.8457 45.8074L35.5187 45.0677C35.3191 44.8862 35.2266 44.6664 35.2452 44.3579L34.247 44.2979ZM34.8457 45.8074C35.3191 46.2381 35.9127 46.3332 36.5383 46.1628L36.2755 45.198C35.9183 45.2953 35.6954 45.2285 35.5187 45.0677L34.8457 45.8074ZM36.5383 46.1628C37.1238 46.0034 37.8117 45.6018 38.5869 45.0157L37.9839 44.218C37.2373 44.7824 36.6729 45.0898 36.2755 45.198L36.5383 46.1628ZM38.5876 45.0152C39.3407 44.4437 40.034 43.9854 40.6679 43.6368L40.1862 42.7605C39.4995 43.1381 38.765 43.6252 37.9831 44.2186L38.5876 45.0152ZM40.6672 43.6372C41.7168 43.0624 42.6482 42.8237 43.4729 42.8707C44.2892 42.9173 45.0475 43.246 45.7573 43.8917L46.4302 43.152C45.5724 42.3717 44.6026 41.9335 43.5299 41.8724C42.4658 41.8117 41.3475 42.1244 40.1869 42.7602L40.6672 43.6372ZM45.7573 43.8917C46.6938 44.7437 47.0854 45.8452 46.9078 47.2657L47.9001 47.3898C48.1138 45.6809 47.6319 44.2452 46.4302 43.152L45.7573 43.8917ZM46.9076 47.2675C46.7343 48.695 46.0149 50.1361 44.6903 51.5921L45.43 52.2651C46.8524 50.7016 47.6955 49.0755 47.9003 47.388L46.9076 47.2675ZM44.6903 51.5921C43.8176 52.5514 42.8794 53.2365 41.8779 53.6629L42.2697 54.583C43.4231 54.0918 44.4758 53.314 45.43 52.2651L44.6903 51.5921ZM41.8779 53.6629C40.8699 54.0921 39.9084 54.2406 38.9848 54.1281L38.8639 55.1207C39.9846 55.2573 41.1227 55.0714 42.2697 54.583L41.8779 53.6629ZM38.9848 54.1281C38.0538 54.0147 37.2995 53.6783 36.6983 53.1313L36.0254 53.8711C36.7967 54.5727 37.7508 54.9851 38.8639 55.1207L38.9848 54.1281ZM36.7317 53.8377L39.8368 50.4245L39.0971 49.7515L35.992 53.1647L36.7317 53.8377ZM39.1404 50.4667C39.7788 51.0171 40.493 51.2763 41.2523 51.1203L41.0511 50.1407C40.6738 50.2182 40.2648 50.1158 39.7934 49.7093L39.1404 50.4667ZM41.259 51.1189C41.9459 50.9679 42.5591 50.5666 43.1024 49.9694L42.3627 49.2964C41.9203 49.7827 41.4796 50.0465 41.0444 50.1422L41.259 51.1189ZM43.1024 49.9694C43.5921 49.4311 43.9145 48.8606 43.9439 48.2654L42.9451 48.2162C42.9321 48.4803 42.7799 48.8379 42.3627 49.2964L43.1024 49.9694ZM43.9435 48.2725C43.9809 47.6834 43.7718 47.1696 43.3349 46.7721L42.662 47.5118C42.8752 47.7058 42.9635 47.9246 42.9455 48.2091L43.9435 48.2725Z" fill="white"/>
<path d="M53.0313 36.3101L53.2416 35.8565L52.6542 35.5842L52.5392 36.2214L53.0313 36.3101ZM52.682 38.2469L52.1899 38.1581L52.1532 38.362L52.2713 38.5321L52.682 38.2469ZM55.2554 41.9527L55.5405 42.3634L55.9512 42.0782L55.6661 41.6676L55.2554 41.9527ZM51.2006 44.7684L50.7899 45.0536L51.0751 45.4643L51.4858 45.1791L51.2006 44.7684ZM38.3588 26.2752L38.0736 25.8645L37.6629 26.1497L37.9481 26.5604L38.3588 26.2752ZM42.4136 23.4596L42.8243 23.1744L42.5391 22.7637L42.1284 23.0489L42.4136 23.4596ZM49.2313 33.2777L48.8206 33.5629L49.6712 34.7877L49.7309 33.2977L49.2313 33.2777ZM49.2644 32.4522L48.7657 32.4171L48.7652 32.4246L48.7648 32.4321L49.2644 32.4522ZM49.6804 26.5278L49.3952 26.1172L49.1984 26.2538L49.1816 26.4928L49.6804 26.5278ZM54.5413 23.1524L55.0389 23.2016L55.1453 22.1242L54.2561 22.7417L54.5413 23.1524ZM53.6992 31.6732L53.2016 31.624L53.1654 31.9909L53.5051 32.134L53.6992 31.6732ZM63.8823 35.9621L64.1675 36.3728L64.9143 35.8543L64.0764 35.5013L63.8823 35.9621ZM59.238 39.1872L59.0277 39.6408L59.2877 39.7614L59.5231 39.5979L59.238 39.1872ZM52.5392 36.2214L52.1899 38.1581L53.1741 38.3356L53.5234 36.3989L52.5392 36.2214ZM52.2713 38.5321L54.8447 42.2379L55.6661 41.6676L53.0927 37.9617L52.2713 38.5321ZM54.9702 41.5421L50.9154 44.3577L51.4858 45.1791L55.5405 42.3634L54.9702 41.5421ZM51.6113 44.4832L38.7695 25.99L37.9481 26.5604L50.7899 45.0536L51.6113 44.4832ZM38.644 26.6859L42.6988 23.8702L42.1284 23.0489L38.0736 25.8645L38.644 26.6859ZM42.0029 23.7447L48.8206 33.5629L49.642 32.9925L42.8243 23.1744L42.0029 23.7447ZM49.7309 33.2977L49.764 32.4722L48.7648 32.4321L48.7317 33.2576L49.7309 33.2977ZM49.7632 32.4872L50.1791 26.5629L49.1816 26.4928L48.7657 32.4171L49.7632 32.4872ZM49.9656 26.9385L54.8265 23.5631L54.2561 22.7417L49.3952 26.1172L49.9656 26.9385ZM54.0437 23.1032L53.2016 31.624L54.1968 31.7224L55.0389 23.2016L54.0437 23.1032ZM53.5051 32.134L63.6882 36.4229L64.0764 35.5013L53.8933 31.2124L53.5051 32.134ZM63.5971 35.5514L58.9528 38.7765L59.5231 39.5979L64.1675 36.3728L63.5971 35.5514ZM59.4482 38.7336L53.2416 35.8565L52.821 36.7637L59.0277 39.6408L59.4482 38.7336Z" fill="white"/>
<path d="M69.3157 33.7869L69.5242 34.2414L69.9787 34.033L69.7702 33.5785L69.3157 33.7869ZM64.8152 35.8508L64.3607 36.0592L64.5692 36.5137L65.0237 36.3053L64.8152 35.8508ZM58.2084 21.4438L58 20.9893L57.5455 21.1977L57.754 21.6522L58.2084 21.4438ZM62.709 19.38L63.1634 19.1715L62.955 18.717L62.5005 18.9255L62.709 19.38ZM69.1073 33.3324L64.6068 35.3963L65.0237 36.3053L69.5242 34.2414L69.1073 33.3324ZM65.2697 35.6423L58.6629 21.2354L57.754 21.6522L64.3607 36.0592L65.2697 35.6423ZM58.4169 21.8983L62.9174 19.8344L62.5005 18.9255L58 20.9893L58.4169 21.8983ZM62.2545 19.5884L68.8613 33.9953L69.7702 33.5785L63.1634 19.1715L62.2545 19.5884ZM56.693 17.6426C56.4571 17.1282 56.4537 16.6482 56.6676 16.1646L55.7532 15.76C55.4185 16.5164 55.4338 17.2956 55.784 18.0594L56.693 17.6426ZM56.6676 16.1646C56.8833 15.6772 57.2868 15.2775 57.9355 14.98L57.5186 14.071C56.6938 14.4493 56.0862 15.0074 55.7532 15.76L56.6676 16.1646ZM57.9355 14.98C58.5841 14.6825 59.1504 14.6376 59.6605 14.7922L59.9505 13.8352C59.1629 13.5965 58.3435 13.6927 57.5186 14.071L57.9355 14.98ZM59.6605 14.7922C60.1665 14.9456 60.528 15.2613 60.7639 15.7758L61.6729 15.3589C61.3226 14.5951 60.7421 14.0751 59.9505 13.8352L59.6605 14.7922ZM60.7639 15.7758C60.9998 16.2902 61.0033 16.7701 60.7893 17.2537L61.7038 17.6584C62.0385 16.9019 62.0232 16.1227 61.6729 15.3589L60.7639 15.7758ZM60.7893 17.2537C60.5736 17.7411 60.1701 18.1409 59.5214 18.4384L59.9383 19.3473C60.7632 18.9691 61.3708 18.411 61.7038 17.6584L60.7893 17.2537ZM59.5214 18.4384C58.8728 18.7358 58.3065 18.7808 57.7965 18.6262L57.5064 19.5832C58.294 19.8219 59.1134 19.7256 59.9383 19.3473L59.5214 18.4384ZM57.7965 18.6262C57.2904 18.4728 56.9289 18.157 56.693 17.6426L55.784 18.0594C56.1343 18.8233 56.7148 19.3433 57.5064 19.5832L57.7965 18.6262Z" fill="white"/>
<path d="M77.4535 30.8554L77.6025 31.3327L78.0798 31.1837L77.9308 30.7064L77.4535 30.8554ZM72.7271 32.3303L72.2498 32.4793L72.3988 32.9566L72.8761 32.8076L72.7271 32.3303ZM66.0244 10.8519L65.8755 10.3746L65.3982 10.5235L65.5471 11.0008L66.0244 10.8519ZM70.7508 9.37692L71.2281 9.22797L71.0791 8.75068L70.6018 8.89962L70.7508 9.37692ZM77.3046 30.3781L72.5782 31.853L72.8761 32.8076L77.6025 31.3327L77.3046 30.3781ZM73.2044 32.1814L66.5017 10.7029L65.5471 11.0008L72.2498 32.4793L73.2044 32.1814ZM66.1734 11.3292L70.8997 9.85422L70.6018 8.89962L65.8755 10.3746L66.1734 11.3292ZM70.2735 9.52587L76.9762 31.0043L77.9308 30.7064L71.2281 9.22797L70.2735 9.52587Z" fill="white"/>
<path d="M86.1719 28.9361L86.258 29.4286L86.7505 29.3425L86.6644 28.8499L86.1719 28.9361ZM81.2947 29.7892L80.8022 29.8754L80.8884 30.3679L81.3809 30.2818L81.2947 29.7892ZM77.4178 7.62576L77.3316 7.13324L76.8391 7.2194L76.9253 7.71192L77.4178 7.62576ZM82.2949 6.77263L82.7874 6.68648L82.7013 6.19396L82.2088 6.28011L82.2949 6.77263ZM86.0857 28.4436L81.2086 29.2967L81.3809 30.2818L86.258 29.4286L86.0857 28.4436ZM81.7873 29.7031L77.9103 7.53961L76.9253 7.71192L80.8022 29.8754L81.7873 29.7031ZM77.5039 8.11829L82.3811 7.26516L82.2088 6.28011L77.3316 7.13324L77.5039 8.11829ZM81.8024 6.85879L85.6793 29.0223L86.6644 28.8499L82.7874 6.68648L81.8024 6.85879Z" fill="white"/>
<path d="M107.429 17.6056L107.926 17.6557L107.927 17.6463L107.429 17.6056ZM106.108 20.6381L106.413 21.0345L106.416 21.0322L106.108 20.6381ZM100.758 20.1146L100.38 20.4425L100.385 20.448L100.758 20.1146ZM99.9705 17.5474L99.4729 17.4973L99.4721 17.5069L99.9705 17.5474ZM100.53 16.9853C100.622 16.0657 100.989 15.3852 101.615 14.8958L101 14.1078C100.135 14.7836 99.6512 15.7254 99.5346 16.8852L100.53 16.9853ZM101.615 14.8958C102.244 14.4049 103.027 14.1909 104.008 14.2896L104.108 13.2946C102.913 13.1744 101.863 13.4335 101 14.1078L101.615 14.8958ZM104.008 14.2896C105.027 14.3921 105.761 14.7539 106.267 15.337L107.022 14.6814C106.315 13.8665 105.324 13.4169 104.108 13.2946L104.008 14.2896ZM106.267 15.337C106.775 15.922 107.005 16.6497 106.931 17.565L107.927 17.6463C108.021 16.4977 107.728 15.4945 107.022 14.6814L106.267 15.337ZM106.931 17.5556L106.87 18.1677L107.865 18.2678L107.926 17.6557L106.931 17.5556ZM106.87 18.1677C106.777 19.0896 106.414 19.7646 105.8 20.244L106.416 21.0322C107.272 20.3638 107.748 19.4252 107.865 18.2678L106.87 18.1677ZM105.803 20.2416C105.191 20.7122 104.4 20.9207 103.381 20.8182L103.281 21.8132C104.497 21.9354 105.557 21.6922 106.413 21.0345L105.803 20.2416ZM103.381 20.8182C102.382 20.7177 101.649 20.3612 101.13 19.7812L100.385 20.448C101.101 21.2486 102.084 21.6928 103.281 21.8132L103.381 20.8182ZM101.135 19.7868C100.625 19.1997 100.396 18.4807 100.469 17.5878L99.4721 17.5069C99.3802 18.639 99.6759 19.6315 100.38 20.4424L101.135 19.7868ZM100.468 17.5974L100.53 16.9853L99.5346 16.8852L99.473 17.4973L100.468 17.5974Z" fill="white"/>
<path d="M122.363 25.1126L121.961 25.4101L121.964 25.4138L122.363 25.1126ZM124.795 18.0954L124.914 18.5811L124.916 18.5805L124.795 18.0954ZM133.693 22.0959L133.256 22.3388L133.693 22.0959ZM133.898 26.2837L133.693 26.7397L134.149 26.9447L134.354 26.4887L133.898 26.2837ZM129.382 24.2534L128.926 24.0484L128.721 24.5044L129.177 24.7094L129.382 24.2534ZM126.964 21.5598L127.09 22.0437L127.098 22.0414L126.964 21.5598ZM127.788 25.014L127.502 25.4244L127.503 25.425L127.788 25.014ZM129.8 26.6096L130.143 26.2452L130.142 26.2446L129.8 26.6096ZM128.041 34.5236L127.946 34.0328L127.944 34.0331L128.041 34.5236ZM118.745 25.9434L118.95 25.4874L118.494 25.2823L118.289 25.7384L118.745 25.9434ZM122.953 27.8355L123.415 28.0283L123.603 27.5791L123.159 27.3795L122.953 27.8355ZM122.961 29.6055L122.526 29.8532L122.53 29.8591L122.961 29.6055ZM125.944 31.0432L125.819 30.559L125.812 30.5608L125.944 31.0432ZM127.306 30.4832C127.568 29.9009 127.445 29.3147 127.069 28.7937L126.258 29.3782C126.476 29.6807 126.477 29.8894 126.394 30.0731L127.306 30.4832ZM127.069 28.7937C126.722 28.3124 126.01 27.6891 125.002 26.9367L124.404 27.738C125.416 28.4935 126.011 29.036 126.258 29.3782L127.069 28.7937ZM125.002 26.9367C124.017 26.2011 123.275 25.4917 122.762 24.8115L121.964 25.4138C122.551 26.192 123.369 26.9657 124.404 27.738L125.002 26.9367ZM122.765 24.8152C122.256 24.128 121.96 23.4562 121.853 22.7982L120.866 22.9594C121.004 23.8037 121.377 24.6211 121.961 25.4101L122.765 24.8152ZM121.853 22.7982C121.747 22.1515 121.837 21.5009 122.136 20.8349L121.224 20.4248C120.851 21.2552 120.726 22.1039 120.866 22.9594L121.853 22.7982ZM122.136 20.8349C122.666 19.6557 123.575 18.9089 124.914 18.5811L124.676 17.6098C123.055 18.0069 121.887 18.9497 121.224 20.4248L122.136 20.8349ZM124.916 18.5805C126.265 18.243 127.776 18.4262 129.475 19.1897L129.885 18.2776C128.038 17.4473 126.293 17.2051 124.674 17.6104L124.916 18.5805ZM129.475 19.1897C131.314 20.0165 132.553 21.0746 133.256 22.3388L134.13 21.8531C133.294 20.3482 131.858 19.1647 129.885 18.2776L129.475 19.1897ZM133.256 22.3388C133.951 23.5898 134.008 24.8198 133.442 26.0787L134.354 26.4887C135.053 24.9331 134.974 23.3712 134.13 21.8531L133.256 22.3388ZM134.103 25.8277L129.587 23.7974L129.177 24.7094L133.693 26.7397L134.103 25.8277ZM129.838 24.4584C130.133 23.8029 130.217 23.1509 129.973 22.5554C129.731 21.9661 129.212 21.5409 128.538 21.2376L128.128 22.1497C128.673 22.395 128.939 22.6707 129.048 22.9347C129.153 23.1924 129.152 23.546 128.926 24.0484L129.838 24.4584ZM128.538 21.2376C127.974 20.9841 127.397 20.9196 126.829 21.0783L127.098 22.0414C127.411 21.9539 127.748 21.9787 128.128 22.1497L128.538 21.2376ZM126.837 21.0761C126.263 21.2262 125.83 21.5761 125.588 22.1139L126.5 22.5239C126.611 22.2779 126.791 22.1217 127.09 22.0436L126.837 21.0761ZM125.588 22.1139C125.326 22.6976 125.419 23.2913 125.776 23.8331L126.611 23.2838C126.408 22.9745 126.402 22.7418 126.5 22.5239L125.588 22.1139ZM125.776 23.8331C126.109 24.3402 126.704 24.8694 127.502 25.4244L128.073 24.6036C127.305 24.0691 126.837 23.628 126.611 23.2838L125.776 23.8331ZM127.503 25.425C128.28 25.9634 128.931 26.4802 129.459 26.9746L130.142 26.2446C129.57 25.7091 128.879 25.1621 128.072 24.603L127.503 25.425ZM129.458 26.9741C130.33 27.7934 130.846 28.6046 131.058 29.4033C131.267 30.1936 131.19 31.0166 130.796 31.8917L131.708 32.3018C132.184 31.2441 132.299 30.1861 132.024 29.1475C131.752 28.1171 131.107 27.1512 130.143 26.2452L129.458 26.9741ZM130.796 31.8917C130.277 33.0465 129.352 33.7606 127.946 34.0328L128.136 35.0145C129.827 34.6872 131.042 33.7834 131.708 32.3018L130.796 31.8917ZM127.944 34.0331C126.534 34.3115 124.94 34.075 123.145 33.2678L122.735 34.1799C124.663 35.0466 126.47 35.3433 128.138 35.0142L127.944 34.0331ZM123.145 33.2678C121.962 32.736 121.02 32.0568 120.304 31.2371L119.551 31.8952C120.375 32.8391 121.442 33.5984 122.735 34.1799L123.145 33.2678ZM120.304 31.2371C119.583 30.4122 119.143 29.5442 118.963 28.6314L117.982 28.8246C118.2 29.9323 118.73 30.9565 119.551 31.8952L120.304 31.2371ZM118.963 28.6314C118.782 27.7112 118.868 26.8897 119.201 26.1484L118.289 25.7384C117.861 26.6893 117.766 27.7243 117.982 28.8246L118.963 28.6314ZM118.54 26.3994L122.748 28.2916L123.159 27.3795L118.95 25.4874L118.54 26.3994ZM122.492 27.6427C122.167 28.4204 122.142 29.1798 122.526 29.8532L123.395 29.3578C123.204 29.0232 123.175 28.6027 123.415 28.0283L122.492 27.6427ZM122.53 29.8591C122.887 30.4652 123.458 30.9235 124.195 31.2546L124.605 30.3425C124.005 30.073 123.618 29.7359 123.392 29.3519L122.53 29.8591ZM124.195 31.2546C124.859 31.553 125.501 31.6824 126.076 31.5255L125.812 30.5608C125.557 30.6304 125.17 30.5968 124.605 30.3425L124.195 31.2546ZM126.069 31.5274C126.641 31.38 127.064 31.0219 127.306 30.4832L126.394 30.0731C126.276 30.336 126.095 30.4878 125.819 30.559L126.069 31.5274Z" fill="white"/>
<path d="M140.449 36.5625L140.945 36.6229L141.023 35.9802L140.381 36.0671L140.449 36.5625ZM138.498 36.8267L138.431 36.3312L138.226 36.359L138.101 36.5237L138.498 36.8267ZM135.765 40.4162L135.462 40.814L135.86 41.1169L136.163 40.7191L135.765 40.4162ZM131.838 37.4256L131.44 37.1227L131.137 37.5205L131.535 37.8234L131.838 37.4256ZM145.477 19.5128L145.78 19.115L145.382 18.8121L145.079 19.2099L145.477 19.5128ZM149.405 22.5034L149.803 22.8064L150.106 22.4085L149.708 22.1056L149.405 22.5034ZM142.163 32.0134L141.766 31.7105L140.862 32.8969L142.298 32.4949L142.163 32.0134ZM142.959 31.7907L142.839 31.3054L142.831 31.3072L142.824 31.3092L142.959 31.7907ZM148.723 30.362L149.026 29.9642L148.836 29.819L148.603 29.8766L148.723 30.362ZM153.432 33.9472L153.538 34.4357L154.596 34.2052L153.735 33.5494L153.432 33.9472ZM145.066 35.77L144.959 35.2815L144.599 35.36L144.568 35.7273L145.066 35.77ZM144.121 46.779L143.818 47.1768L144.542 47.7276L144.619 46.8218L144.121 46.779ZM139.623 43.3536L139.126 43.2932L139.092 43.5777L139.32 43.7514L139.623 43.3536ZM140.381 36.0671L138.431 36.3312L138.565 37.3221L140.516 37.058L140.381 36.0671ZM138.101 36.5237L135.367 40.1133L136.163 40.7191L138.896 37.1296L138.101 36.5237ZM136.068 40.0184L132.14 37.0278L131.535 37.8234L135.462 40.814L136.068 40.0184ZM132.235 37.7285L145.875 19.8157L145.079 19.2099L131.44 37.1227L132.235 37.7285ZM145.174 19.9106L149.102 22.9012L149.708 22.1056L145.78 19.115L145.174 19.9106ZM149.007 22.2005L141.766 31.7105L142.561 32.3163L149.803 22.8064L149.007 22.2005ZM142.298 32.4949L143.094 32.2722L142.824 31.3092L142.029 31.5319L142.298 32.4949ZM143.079 32.276L148.844 30.8473L148.603 29.8766L142.839 31.3054L143.079 32.276ZM148.421 30.7598L153.129 34.345L153.735 33.5494L149.026 29.9642L148.421 30.7598ZM153.325 33.4586L144.959 35.2815L145.172 36.2586L153.538 34.4357L153.325 33.4586ZM144.568 35.7273L143.623 46.7363L144.619 46.8218L145.564 35.8128L144.568 35.7273ZM144.424 46.3812L139.926 42.9558L139.32 43.7514L143.818 47.1768L144.424 46.3812ZM140.119 43.4139L140.945 36.6229L139.952 36.5022L139.126 43.2932L140.119 43.4139Z" fill="white"/>
<path d="M148.12 51.5399L147.752 51.8777L148.09 52.2463L148.458 51.9085L148.12 51.5399ZM144.775 47.8896L144.437 47.521L144.069 47.8588L144.407 48.2274L144.775 47.8896ZM156.461 37.1814L156.829 36.8436L156.491 36.475L156.123 36.8128L156.461 37.1814ZM159.806 40.8317L160.143 41.2004L160.512 40.8626L160.174 40.4939L159.806 40.8317ZM148.489 51.2021L145.144 47.5518L144.407 48.2274L147.752 51.8777L148.489 51.2021ZM145.113 48.2582L156.798 37.5501L156.123 36.8128L144.437 47.521L145.113 48.2582ZM156.092 37.5193L159.437 41.1695L160.174 40.4939L156.829 36.8436L156.092 37.5193ZM159.468 40.4631L147.783 51.1713L148.458 51.9085L160.143 41.2004L159.468 40.4631ZM159.613 34.5729C160.031 34.1906 160.486 34.04 161.012 34.0953L161.117 33.1008C160.294 33.0143 159.557 33.2679 158.938 33.8357L159.613 34.5729ZM161.012 34.0953C161.542 34.1511 162.047 34.4125 162.529 34.9386L163.266 34.263C162.653 33.5939 161.935 33.1869 161.117 33.1008L161.012 34.0953ZM162.529 34.9386C163.011 35.4647 163.227 35.9899 163.237 36.5227L164.237 36.5052C164.222 35.6823 163.879 34.932 163.266 34.263L162.529 34.9386ZM163.237 36.5227C163.246 37.0515 163.056 37.4924 162.639 37.8747L163.315 38.612C163.934 38.0443 164.251 37.3322 164.237 36.5052L163.237 36.5227ZM162.639 37.8747C162.222 38.2571 161.766 38.4076 161.24 38.3523L161.136 39.3468C161.958 39.4333 162.695 39.1797 163.315 38.612L162.639 37.8747ZM161.24 38.3523C160.71 38.2966 160.206 38.0352 159.724 37.5091L158.987 38.1847C159.6 38.8537 160.317 39.2608 161.136 39.3468L161.24 38.3523ZM159.724 37.5091C159.242 36.983 159.025 36.4578 159.016 35.9249L158.016 35.9424C158.03 36.7653 158.373 37.5156 158.987 38.1847L159.724 37.5091ZM159.016 35.9249C159.007 35.3962 159.196 34.9553 159.613 34.5729L158.938 33.8357C158.318 34.4034 158.002 35.1154 158.016 35.9424L159.016 35.9249Z" fill="white"/>
<path d="M153.281 58.216L152.873 58.5056L153.163 58.9132L153.571 58.6235L153.281 58.216ZM150.412 54.1804L150.123 53.7728L149.715 54.0625L150.005 54.4701L150.412 54.1804ZM168.752 41.145L169.159 40.8553L168.87 40.4478L168.462 40.7375L168.752 41.145ZM171.62 45.1806L171.91 45.5881L172.317 45.2985L172.028 44.8909L171.62 45.1806ZM153.688 57.9263L150.82 53.8907L150.005 54.4701L152.873 58.5056L153.688 57.9263ZM150.702 54.5879L169.041 41.5525L168.462 40.7375L150.123 53.7728L150.702 54.5879ZM168.344 41.4347L171.213 45.4703L172.028 44.8909L169.159 40.8553L168.344 41.4347ZM171.331 44.7731L152.991 57.8084L153.571 58.6235L171.91 45.5881L171.331 44.7731Z" fill="white"/>
<path d="M157.802 65.8962L157.361 66.1312L157.596 66.5725L158.037 66.3375L157.802 65.8962ZM155.475 61.526L155.24 61.0847L154.798 61.3197L155.033 61.761L155.475 61.526ZM175.335 50.9505L175.776 50.7155L175.541 50.2741L175.099 50.5091L175.335 50.9505ZM177.662 55.3206L177.897 55.762L178.338 55.527L178.103 55.0856L177.662 55.3206ZM158.243 65.6612L155.916 61.291L155.033 61.761L157.361 66.1312L158.243 65.6612ZM155.71 61.9673L175.57 51.3918L175.099 50.5091L155.24 61.0847L155.71 61.9673ZM174.893 51.1855L177.22 55.5557L178.103 55.0856L175.776 50.7155L174.893 51.1855ZM177.427 54.8793L157.567 65.4548L158.037 66.3375L177.897 55.762L177.427 54.8793Z" fill="white"/>
<path d="M175.09 82.3719L175.197 82.8605L175.206 82.8583L175.09 82.3719ZM171.798 82.057L171.515 82.4697L171.518 82.4718L171.798 82.057ZM170.635 76.8082L170.206 76.5509L170.203 76.5574L170.635 76.8082ZM172.832 75.2635L172.725 74.7749L172.715 74.7772L172.832 75.2635ZM173.539 75.6206C174.442 75.4232 175.203 75.5608 175.863 76.0045L176.421 75.1747C175.51 74.5621 174.465 74.3947 173.326 74.6436L173.539 75.6206ZM175.863 76.0045C176.524 76.4495 176.971 77.1275 177.181 78.0913L178.158 77.8777C177.902 76.7045 177.329 75.7859 176.421 75.1747L175.863 76.0045ZM177.181 78.0913C177.4 79.092 177.284 79.9016 176.886 80.5638L177.744 81.0782C178.299 80.1527 178.419 79.0713 178.158 77.8777L177.181 78.0913ZM176.886 80.5638C176.488 81.2281 175.867 81.6726 174.974 81.8856L175.206 82.8583C176.327 82.591 177.19 82.0016 177.744 81.0782L176.886 80.5638ZM174.983 81.8835L174.382 82.0148L174.596 82.9918L175.197 82.8604L174.983 81.8835ZM174.382 82.0148C173.477 82.2127 172.723 82.0771 172.077 81.6422L171.518 82.4718C172.419 83.0782 173.459 83.2402 174.596 82.9918L174.382 82.0148ZM172.08 81.6444C171.443 81.2083 170.999 80.5211 170.78 79.5204L169.803 79.734C170.064 80.9276 170.624 81.8602 171.515 82.4697L172.08 81.6444ZM170.78 79.5204C170.566 78.5396 170.677 77.7322 171.068 77.059L170.203 76.5574C169.664 77.4867 169.546 78.5586 169.803 79.734L170.78 79.5204ZM171.064 77.0654C171.464 76.3987 172.076 75.9579 172.948 75.7498L172.715 74.7772C171.611 75.041 170.759 75.63 170.206 76.5509L171.064 77.0654ZM172.938 75.752L173.539 75.6206L173.326 74.6436L172.725 74.775L172.938 75.752Z" fill="white"/>
</svg>
