<svg width="538" height="538" viewBox="0 0 538 538" fill="none" xmlns="http://www.w3.org/2000/svg">
<path fill-rule="evenodd" clip-rule="evenodd" d="M0 0H538V538H0V0ZM381.947 442.888C373.108 437.449 365.986 429.622 361.402 420.311L320.361 444.214C329.09 460.804 342.434 474.514 358.782 483.689C375.13 492.864 393.784 497.112 412.493 495.919C460.51 495.919 496.267 470.979 496.267 425.461C496.267 383.247 471.981 364.475 429.017 346.048L416.374 340.63C394.681 331.195 385.286 325.047 385.286 309.887C385.316 306.831 385.982 303.816 387.242 301.032C388.502 298.248 390.328 295.757 392.604 293.718C394.88 291.679 397.556 290.137 400.461 289.189C403.366 288.241 406.436 287.909 409.477 288.213C416.445 288.11 423.281 290.127 429.077 293.998C434.873 297.869 439.355 303.41 441.929 309.887L481.453 284.62C474.768 271.558 464.384 260.753 451.598 253.554C438.812 246.354 424.189 243.079 409.553 244.136C364.342 244.136 335.521 273.015 335.521 310.924C335.521 352.081 359.731 371.545 396.238 387.09L408.881 392.508C431.938 402.596 445.695 408.783 445.695 426.076C445.695 440.582 432.303 451.054 411.359 451.054C400.982 451.158 390.786 448.327 381.947 442.888ZM215.335 450.689C197.966 450.689 190.741 438.776 182.806 424.692L141.649 449.652C148.159 464.093 158.888 476.227 172.424 484.458C185.96 492.688 201.669 496.63 217.487 495.766C262.237 495.766 292.98 471.94 292.98 419.6V247.018H242.428V418.928C242.428 444.195 231.937 450.689 215.335 450.689Z" fill="white"/>
</svg>
