<svg width="289" height="115" viewBox="0 0 289 115" fill="none" xmlns="http://www.w3.org/2000/svg">
<rect width="286.068" height="112.544" transform="matrix(1 0 0 -1 1.22778 113.772)" stroke="white" stroke-width="2.45552"/>
<path d="M134.372 44.5626C135.592 44.8548 136.512 45.379 137.131 46.1353C137.767 46.8744 138.085 47.8284 138.085 48.9972C138.085 50.5614 137.509 51.7732 136.357 52.6326C135.223 53.492 133.564 53.9218 131.381 53.9218H123.131V35.8737H130.891C132.868 35.8737 134.406 36.2776 135.506 37.0855C136.624 37.8762 137.182 39.0192 137.182 40.5146C137.182 41.4944 136.933 42.328 136.435 43.0156C135.953 43.7031 135.266 44.2188 134.372 44.5626ZM125.683 43.8148H130.711C131.966 43.8148 132.92 43.5656 133.573 43.0671C134.243 42.5687 134.578 41.8382 134.578 40.8756C134.578 39.913 134.243 39.1825 133.573 38.684C132.902 38.1684 131.948 37.9106 130.711 37.9106H125.683V43.8148ZM131.33 51.8849C134.097 51.8849 135.481 50.8536 135.481 48.791C135.481 47.7596 135.128 47.0033 134.424 46.5221C133.736 46.0236 132.705 45.7744 131.33 45.7744H125.683V51.8849H131.33ZM156.702 49.4097H147.111L145.125 53.9218H142.47L150.643 35.8737H153.195L161.394 53.9218H158.687L156.702 49.4097ZM155.799 47.3471L151.906 38.5036L148.013 47.3471H155.799ZM174.906 54.128C173.101 54.128 171.468 53.7327 170.007 52.942C168.563 52.1341 167.429 51.0341 166.604 49.6418C165.779 48.2323 165.366 46.651 165.366 44.8977C165.366 43.1445 165.779 41.5717 166.604 40.1795C167.429 38.77 168.572 37.6699 170.033 36.8792C171.494 36.0714 173.127 35.6674 174.932 35.6674C176.341 35.6674 177.63 35.9081 178.799 36.3894C179.968 36.8535 180.965 37.5496 181.79 38.4778L180.114 40.1021C178.756 38.6755 177.063 37.9621 175.035 37.9621C173.694 37.9621 172.482 38.2629 171.399 38.8645C170.316 39.4661 169.466 40.2998 168.847 41.3655C168.245 42.414 167.944 43.5914 167.944 44.8977C167.944 46.2041 168.245 47.3901 168.847 48.4558C169.466 49.5043 170.316 50.3293 171.399 50.9309C172.482 51.5325 173.694 51.8333 175.035 51.8333C177.046 51.8333 178.739 51.1114 180.114 49.6676L181.79 51.2919C180.965 52.2201 179.959 52.9248 178.773 53.4061C177.604 53.8874 176.315 54.128 174.906 54.128ZM187.92 35.8737H190.473V49.7965L201.147 35.8737H203.519V53.9218H200.992V40.0248L190.292 53.9218H187.92V35.8737ZM226.245 35.8737V53.9218H223.719V38.1168H215.726L215.545 43.4023C215.46 45.8947 215.253 47.9143 214.927 49.4613C214.617 51.0083 214.119 52.1771 213.431 52.9678C212.744 53.7413 211.816 54.128 210.647 54.128C210.114 54.128 209.572 54.0593 209.022 53.9218L209.203 51.6271C209.478 51.6958 209.753 51.7302 210.028 51.7302C210.767 51.7302 211.36 51.438 211.807 50.8536C212.254 50.252 212.589 49.3582 212.813 48.1722C213.036 46.9861 213.182 45.422 213.251 43.4797L213.534 35.8737H226.245ZM234.445 35.8737H236.998V49.7965L247.672 35.8737H250.044V53.9218H247.517V40.0248L236.817 53.9218H234.445V35.8737ZM258.249 35.8737H260.802V49.7965L271.476 35.8737H273.848V53.9218H271.321V40.0248L260.621 53.9218H258.249V35.8737ZM266.01 34.6103C264.6 34.6103 263.509 34.3095 262.735 33.7079C261.979 33.0892 261.592 32.2125 261.575 31.0781H263.406C263.423 31.7484 263.655 32.2727 264.102 32.6508C264.566 33.0118 265.202 33.1923 266.01 33.1923C266.783 33.1923 267.402 33.0118 267.866 32.6508C268.348 32.2727 268.597 31.7484 268.614 31.0781H270.419C270.402 32.1953 270.006 33.0634 269.233 33.6822C268.476 34.301 267.402 34.6103 266.01 34.6103ZM143.035 70.8719C143.035 73.2612 142.201 75.1347 140.534 76.4926C138.867 77.8505 136.512 78.581 133.47 78.6842V80.5921H131.072V78.6842C128.029 78.5639 125.666 77.8247 123.981 76.4668C122.314 75.1089 121.481 73.244 121.481 70.8719C121.481 68.4827 122.314 66.6092 123.981 65.2513C125.666 63.8934 128.029 63.1543 131.072 63.0339V61.2034H133.47V63.0339C136.495 63.1543 138.841 63.902 140.508 65.2771C142.193 66.635 143.035 68.4999 143.035 70.8719ZM133.47 76.6731C135.773 76.5356 137.526 75.977 138.729 74.9972C139.95 74.0003 140.56 72.6166 140.56 70.8462C140.56 69.1101 139.941 67.7522 138.704 66.7725C137.483 65.7755 135.738 65.2083 133.47 65.0708V76.6731ZM123.981 70.8719C123.981 72.6252 124.592 74.0003 125.812 74.9972C127.05 75.977 128.803 76.5356 131.072 76.6731V65.0708C128.769 65.2083 127.007 65.7669 125.786 66.7467C124.583 67.7264 123.981 69.1015 123.981 70.8719ZM162.676 77.6786V79.9218H149.578V61.8737H162.315V64.1168H152.157V69.6602H161.206V71.8517H152.157V77.6786H162.676ZM186.5 77.6786V83.8665H184.103V79.9218H169.252L169.226 83.8665H166.828L166.854 77.6786H167.73C168.865 77.6099 169.664 76.7161 170.128 74.9972C170.592 73.2612 170.876 70.8204 170.979 67.6749L171.16 61.8737H183.845V77.6786H186.5ZM173.248 67.9069C173.162 70.4508 172.956 72.5564 172.629 74.2237C172.32 75.891 171.813 77.0427 171.108 77.6786H181.292V64.1168H173.377L173.248 67.9069ZM200.725 80.128C198.903 80.128 197.262 79.7327 195.801 78.942C194.34 78.1341 193.188 77.0255 192.346 75.616C191.521 74.2065 191.108 72.6338 191.108 70.8977C191.108 69.1617 191.521 67.5889 192.346 66.1795C193.188 64.77 194.34 63.6699 195.801 62.8792C197.262 62.0714 198.903 61.6674 200.725 61.6674C202.53 61.6674 204.163 62.0714 205.624 62.8792C207.085 63.6699 208.228 64.77 209.053 66.1795C209.878 67.5717 210.291 69.1445 210.291 70.8977C210.291 72.651 209.878 74.2323 209.053 75.6418C208.228 77.0341 207.085 78.1341 205.624 78.942C204.163 79.7327 202.53 80.128 200.725 80.128ZM200.725 77.8333C202.049 77.8333 203.235 77.5325 204.283 76.9309C205.349 76.3293 206.183 75.5043 206.784 74.4558C207.403 73.3901 207.712 72.2041 207.712 70.8977C207.712 69.5914 207.403 68.414 206.784 67.3655C206.183 66.2998 205.349 65.4661 204.283 64.8645C203.235 64.2629 202.049 63.9621 200.725 63.9621C199.402 63.9621 198.198 64.2629 197.116 64.8645C196.05 65.4661 195.208 66.2998 194.589 67.3655C193.987 68.414 193.686 69.5914 193.686 70.8977C193.686 72.2041 193.987 73.3901 194.589 74.4558C195.208 75.5043 196.05 76.3293 197.116 76.9309C198.198 77.5325 199.402 77.8333 200.725 77.8333ZM224.076 61.8737C226.413 61.8737 228.252 62.4323 229.593 63.5496C230.934 64.6669 231.604 66.2052 231.604 68.1647C231.604 70.1242 230.934 71.6626 229.593 72.7799C228.252 73.8971 226.413 74.4558 224.076 74.4558H219.615V79.9218H217.037V61.8737H224.076ZM223.998 72.2127C225.631 72.2127 226.877 71.8689 227.737 71.1813C228.596 70.4766 229.026 69.4711 229.026 68.1647C229.026 66.8584 228.596 65.8615 227.737 65.1739C226.877 64.4692 225.631 64.1168 223.998 64.1168H219.615V72.2127H223.998ZM246.142 80.128C244.32 80.128 242.679 79.7327 241.218 78.942C239.757 78.1341 238.605 77.0255 237.763 75.616C236.938 74.2065 236.525 72.6338 236.525 70.8977C236.525 69.1617 236.938 67.5889 237.763 66.1795C238.605 64.77 239.757 63.6699 241.218 62.8792C242.679 62.0714 244.32 61.6674 246.142 61.6674C247.947 61.6674 249.58 62.0714 251.041 62.8792C252.502 63.6699 253.645 64.77 254.47 66.1795C255.295 67.5717 255.708 69.1445 255.708 70.8977C255.708 72.651 255.295 74.2323 254.47 75.6418C253.645 77.0341 252.502 78.1341 251.041 78.942C249.58 79.7327 247.947 80.128 246.142 80.128ZM246.142 77.8333C247.466 77.8333 248.652 77.5325 249.7 76.9309C250.766 76.3293 251.6 75.5043 252.201 74.4558C252.82 73.3901 253.13 72.2041 253.13 70.8977C253.13 69.5914 252.82 68.414 252.201 67.3655C251.6 66.2998 250.766 65.4661 249.7 64.8645C248.652 64.2629 247.466 63.9621 246.142 63.9621C244.819 63.9621 243.616 64.2629 242.533 64.8645C241.467 65.4661 240.625 66.2998 240.006 67.3655C239.404 68.414 239.104 69.5914 239.104 70.8977C239.104 72.2041 239.404 73.3901 240.006 74.4558C240.625 75.5043 241.467 76.3293 242.533 76.9309C243.616 77.5325 244.819 77.8333 246.142 77.8333ZM273.695 70.5626C274.916 70.8548 275.835 71.379 276.454 72.1353C277.09 72.8744 277.408 73.8284 277.408 74.9972C277.408 76.5614 276.832 77.7732 275.681 78.6326C274.546 79.492 272.888 79.9218 270.705 79.9218H262.454V61.8737H270.215C272.191 61.8737 273.73 62.2776 274.83 63.0855C275.947 63.8762 276.506 65.0192 276.506 66.5146C276.506 67.4944 276.257 68.328 275.758 69.0156C275.277 69.7031 274.589 70.2188 273.695 70.5626ZM265.007 69.8148H270.034C271.289 69.8148 272.243 69.5656 272.896 69.0671C273.567 68.5687 273.902 67.8382 273.902 66.8756C273.902 65.913 273.567 65.1825 272.896 64.684C272.226 64.1684 271.272 63.9106 270.034 63.9106H265.007V69.8148ZM270.653 77.8849C273.42 77.8849 274.804 76.8536 274.804 74.791C274.804 73.7596 274.452 73.0033 273.747 72.5221C273.059 72.0236 272.028 71.7744 270.653 71.7744H265.007V77.8849H270.653Z" fill="white"/>
<path d="M39.8858 47.4743L12.1139 58.5978L39.8858 69.7213V73.1099L8.57796 60.3658V56.8298L39.8858 44.0857V47.4743ZM67.8298 22.3544H71.2184L46.9088 91.7473H43.5201L67.8298 22.3544ZM105.422 56.8298V60.3658L74.1143 73.1099V69.7213L101.886 58.5978L74.1143 47.4743V44.0857L105.422 56.8298Z" fill="white"/>
<rect x="1.22778" y="1.22778" width="112.544" height="112.544" stroke="white" stroke-width="2.45552"/>
</svg>
