<svg width="121" height="59" viewBox="0 0 121 59" fill="none" xmlns="http://www.w3.org/2000/svg">
<path d="M53.7749 21.976V37.081H38.7289V21.976H53.7749ZM54.6298 21.121H37.874V37.879H54.6298V21.121Z" fill="white"/>
<path d="M16.9009 42.097V57.202H1.85489V42.097H16.9009ZM17.7557 41.242H1V58H17.7557V41.242Z" fill="white"/>
<path d="M70.5876 1.855V16.96H38.7289V1.855H70.5876ZM71.3855 1H37.874V17.758H71.3855V1Z" fill="white"/>
<path d="M33.7136 21.976V37.081H1.85489V21.976H33.7136ZM34.5115 21.121H1V37.879H34.5115V21.121Z" fill="white"/>
<path d="M70.5876 42.097V57.202H38.7289V42.097H70.5876ZM71.3855 41.242H37.874V58H71.3855V41.242Z" fill="white"/>
<path d="M33.7136 1.855V16.96H1.85489V1.855H33.7136ZM34.5115 1H1V17.758H34.5115V1Z" fill="white"/>
<path d="M75.603 57.145V42.097H91.5038V41.242H74.7481V58H91.5038V57.145H75.603Z" fill="white"/>
<path d="M91.5038 1V1.855C98.9128 1.855 105.809 4.762 111.052 9.949C116.295 15.193 119.145 22.147 119.145 29.5C119.145 36.853 116.238 43.807 111.052 49.051C105.809 54.238 98.8558 57.145 91.5038 57.145V58C107.234 58 120 45.232 120 29.5C120 13.768 107.234 1 91.5038 1Z" fill="white"/>
<path d="M91.5038 16.903V17.758C98.0009 17.758 103.244 23.002 103.244 29.5C103.244 35.998 98.0009 41.242 91.5038 41.242V42.097C98.4569 42.097 104.099 36.454 104.099 29.5C104.099 22.546 98.4569 16.903 91.5038 16.903Z" fill="white"/>
<path d="M75.603 37.024V21.976H91.5038V21.121H74.7481V37.879H91.5038V37.024H75.603Z" fill="white"/>
<path d="M75.603 16.903V1.855H91.5038V1H74.7481V17.758H91.5038V16.903H75.603Z" fill="white"/>
<path d="M91.5038 21.121V21.976C95.6643 21.976 99.0268 25.339 99.0268 29.5C99.0268 33.661 95.6643 37.024 91.5038 37.024V37.879C96.1202 37.879 99.8817 34.117 99.8817 29.5C99.8817 24.883 96.1202 21.121 91.5038 21.121Z" fill="white"/>
<path d="M91.5038 42.097V41.242M91.5038 42.097C98.4569 42.097 104.099 36.454 104.099 29.5C104.099 22.546 98.4569 16.903 91.5038 16.903M91.5038 42.097H75.603V57.145H91.5038M91.5038 41.242H74.7481V58H91.5038M91.5038 41.242C98.0009 41.242 103.244 35.998 103.244 29.5C103.244 23.002 98.0009 17.758 91.5038 17.758M91.5038 58V57.145M91.5038 58C107.234 58 120 45.232 120 29.5C120 13.768 107.234 1 91.5038 1M91.5038 57.145C98.8558 57.145 105.809 54.238 111.052 49.051C116.238 43.807 119.145 36.853 119.145 29.5C119.145 22.147 116.295 15.193 111.052 9.949C105.809 4.762 98.9128 1.855 91.5038 1.855M91.5038 1V1.855M91.5038 1H74.7481V17.758H91.5038M91.5038 1.855H75.603V16.903H91.5038M91.5038 16.903V17.758M91.5038 21.976V21.121M91.5038 21.976C95.6643 21.976 99.0268 25.339 99.0268 29.5C99.0268 33.661 95.6643 37.024 91.5038 37.024M91.5038 21.976H75.603V37.024H91.5038M91.5038 21.121H74.7481V37.879H91.5038M91.5038 21.121C96.1202 21.121 99.8817 24.883 99.8817 29.5C99.8817 34.117 96.1202 37.879 91.5038 37.879M91.5038 37.879V37.024M53.7749 21.976V37.081H38.7289V21.976H53.7749ZM54.6298 21.121H37.874V37.879H54.6298V21.121ZM16.9009 42.097V57.202H1.85489V42.097H16.9009ZM17.7557 41.242H1V58H17.7557V41.242ZM70.5876 1.855V16.96H38.7289V1.855H70.5876ZM71.3855 1H37.874V17.758H71.3855V1ZM33.7136 21.976V37.081H1.85489V21.976H33.7136ZM34.5115 21.121H1V37.879H34.5115V21.121ZM70.5876 42.097V57.202H38.7289V42.097H70.5876ZM71.3855 41.242H37.874V58H71.3855V41.242ZM33.7136 1.855V16.96H1.85489V1.855H33.7136ZM34.5115 1H1V17.758H34.5115V1Z" stroke="white" stroke-width="0.5"/>
</svg>
