<svg width="120" height="120" viewBox="0 0 120 120" fill="none" xmlns="http://www.w3.org/2000/svg">
<rect x="1" y="1" width="118" height="118" stroke="white" stroke-width="1.475"/>
<path d="M12.6773 87.8758C13.5818 88.0617 14.2694 88.4272 14.7402 88.9723C15.211 89.5051 15.4465 90.2051 15.4465 91.0724C15.4465 92.1999 15.0438 93.0672 14.2384 93.6743C13.4455 94.2814 12.2746 94.585 10.7259 94.585H4.96451V81.5755H10.3727C11.7604 81.5755 12.8446 81.8605 13.6251 82.4304C14.4057 83.0003 14.796 83.8243 14.796 84.9022C14.796 85.6332 14.6101 86.2527 14.2384 86.7607C13.8667 87.2563 13.3464 87.628 12.6773 87.8758ZM6.32122 87.4669H10.2984C11.302 87.4669 12.0702 87.2625 12.603 86.8536C13.1481 86.4448 13.4207 85.85 13.4207 85.0695C13.4207 84.2889 13.1481 83.6942 12.603 83.2853C12.0702 82.8764 11.302 82.672 10.2984 82.672H6.32122V87.4669ZM10.7259 93.4885C12.9685 93.4885 14.0898 92.6522 14.0898 90.9795C14.0898 89.344 12.9685 88.5263 10.7259 88.5263H6.32122V93.4885H10.7259ZM29.0697 91.1096H21.8215L20.2604 94.585H18.8294L24.7766 81.5755H26.1333L32.0805 94.585H30.6308L29.0697 91.1096ZM28.5679 89.9945L25.4456 83.0065L22.3233 89.9945H28.5679ZM41.9375 94.6965C40.6489 94.6965 39.4843 94.4115 38.4435 93.8416C37.4151 93.2717 36.6036 92.4849 36.0089 91.4813C35.4265 90.4653 35.1354 89.3316 35.1354 88.0802C35.1354 86.8289 35.4265 85.7014 36.0089 84.6978C36.6036 83.6818 37.4213 82.8888 38.4621 82.3189C39.5029 81.749 40.6675 81.464 41.9561 81.464C42.9225 81.464 43.8146 81.6251 44.6323 81.9472C45.4501 82.2693 46.1439 82.7402 46.7138 83.3597L45.8403 84.2331C44.8244 83.2048 43.542 82.6906 41.9932 82.6906C40.9649 82.6906 40.0294 82.926 39.1869 83.3968C38.3444 83.8676 37.6815 84.5119 37.1983 85.3297C36.7275 86.1474 36.4921 87.0643 36.4921 88.0802C36.4921 89.0962 36.7275 90.0131 37.1983 90.8308C37.6815 91.6486 38.3444 92.2928 39.1869 92.7637C40.0294 93.2345 40.9649 93.4699 41.9932 93.4699C43.5544 93.4699 44.8367 92.9495 45.8403 91.9088L46.7138 92.7822C46.1439 93.4017 45.4439 93.8788 44.6137 94.2133C43.796 94.5354 42.9039 94.6965 41.9375 94.6965ZM51.4125 81.5755H52.7692V92.3548L61.0953 81.5755H62.3405V94.585H60.9838V83.8243L52.6577 94.585H51.4125V81.5755ZM78.5926 81.5755V94.585H77.2359V82.7649H70.9542L70.8055 87.1138C70.7436 88.9104 70.5949 90.36 70.3595 91.4627C70.1365 92.553 69.7895 93.3708 69.3187 93.9159C68.8479 94.4487 68.2222 94.7151 67.4416 94.7151C67.1071 94.7151 66.7602 94.6717 66.4009 94.585L66.5124 93.3584C66.723 93.4079 66.9274 93.4327 67.1257 93.4327C67.6708 93.4327 68.1107 93.2159 68.4452 92.7822C68.7921 92.3486 69.0523 91.6795 69.2258 90.7751C69.3992 89.8582 69.517 88.6502 69.5789 87.151L69.7648 81.5755H78.5926ZM84.8401 81.5755H86.1968V92.3548L94.5229 81.5755H95.7681V94.585H94.4114V83.8243L86.0853 94.585H84.8401V81.5755ZM102.017 81.5755H103.373V92.3548L111.699 81.5755H112.945V94.585H111.588V83.8243L103.262 94.585H102.017V81.5755ZM107.444 80.6277C106.514 80.6277 105.777 80.417 105.232 79.9958C104.699 79.5745 104.427 78.986 104.414 78.2302H105.436C105.449 78.7258 105.635 79.1161 105.994 79.401C106.353 79.686 106.836 79.8285 107.444 79.8285C108.038 79.8285 108.515 79.686 108.875 79.401C109.246 79.1161 109.438 78.7258 109.451 78.2302H110.473C110.46 78.986 110.182 79.5745 109.637 79.9958C109.091 80.417 108.36 80.6277 107.444 80.6277ZM18.8847 107.062C18.8847 108.784 18.2714 110.141 17.0448 111.132C15.8305 112.111 14.1269 112.631 11.9339 112.693V114.031H10.6515V112.693C8.45849 112.619 6.74867 112.092 5.52206 111.113C4.30784 110.134 3.70073 108.784 3.70073 107.062C3.70073 105.339 4.30784 103.989 5.52206 103.01C6.74867 102.031 8.45849 101.505 10.6515 101.43V100.129H11.9339V101.43C14.1145 101.505 15.8182 102.038 17.0448 103.029C18.2714 104.008 18.8847 105.352 18.8847 107.062ZM11.9339 111.596C13.7304 111.522 15.1181 111.095 16.0969 110.314C17.0757 109.533 17.5651 108.449 17.5651 107.062C17.5651 105.674 17.0695 104.59 16.0783 103.809C15.0995 103.029 13.7181 102.607 11.9339 102.546V111.596ZM5.02027 107.062C5.02027 108.449 5.50967 109.533 6.48848 110.314C7.47968 111.082 8.86736 111.51 10.6515 111.596V102.546C8.84259 102.62 7.44871 103.047 6.4699 103.828C5.50348 104.596 5.02027 105.674 5.02027 107.062ZM33.0649 112.396V113.585H23.8653V100.575H32.7861V101.765H25.2406V106.393H31.9684V107.563H25.2406V112.396H33.0649ZM49.9248 112.396V116.503H48.6425V113.585H37.287L37.2684 116.503H35.9861L36.0047 112.396H36.6551C37.51 112.346 38.1048 111.671 38.4393 110.37C38.7738 109.056 38.9783 107.198 39.0526 104.794L39.2013 100.575H47.9734V112.396H49.9248ZM40.2792 104.924C40.2173 106.907 40.0624 108.542 39.8146 109.831C39.5792 111.107 39.1765 111.962 38.6066 112.396H46.6167V101.765H40.3907L40.2792 104.924ZM60.2942 113.697C59.0057 113.697 57.8348 113.412 56.7817 112.842C55.7409 112.259 54.9232 111.466 54.3285 110.463C53.7461 109.459 53.455 108.332 53.455 107.08C53.455 105.829 53.7461 104.701 54.3285 103.698C54.9232 102.694 55.7409 101.907 56.7817 101.337C57.8348 100.755 59.0057 100.464 60.2942 100.464C61.5828 100.464 62.7413 100.749 63.7696 101.319C64.8104 101.889 65.6281 102.682 66.2229 103.698C66.8176 104.701 67.1149 105.829 67.1149 107.08C67.1149 108.332 66.8176 109.465 66.2229 110.481C65.6281 111.485 64.8104 112.272 63.7696 112.842C62.7413 113.412 61.5828 113.697 60.2942 113.697ZM60.2942 112.47C61.3226 112.47 62.2519 112.241 63.082 111.782C63.9121 111.311 64.5626 110.667 65.0334 109.849C65.5042 109.019 65.7396 108.096 65.7396 107.08C65.7396 106.064 65.5042 105.147 65.0334 104.33C64.5626 103.5 63.9121 102.855 63.082 102.397C62.2519 101.926 61.3226 101.691 60.2942 101.691C59.2659 101.691 58.3304 101.926 57.4879 102.397C56.6578 102.855 56.0011 103.5 55.5179 104.33C55.0471 105.147 54.8117 106.064 54.8117 107.08C54.8117 108.096 55.0471 109.019 55.5179 109.849C56.0011 110.667 56.6578 111.311 57.4879 111.782C58.3304 112.241 59.2659 112.47 60.2942 112.47ZM77.1246 100.575C78.7848 100.575 80.0858 100.972 81.0274 101.765C81.969 102.558 82.4399 103.648 82.4399 105.036C82.4399 106.424 81.969 107.514 81.0274 108.307C80.0858 109.087 78.7848 109.478 77.1246 109.478H73.6306V113.585H72.2553V100.575H77.1246ZM77.0874 108.27C78.3759 108.27 79.361 107.991 80.0424 107.433C80.7239 106.863 81.0646 106.064 81.0646 105.036C81.0646 103.983 80.7239 103.177 80.0424 102.62C79.361 102.05 78.3759 101.765 77.0874 101.765H73.6306V108.27H77.0874ZM93.014 113.697C91.7254 113.697 90.5546 113.412 89.5014 112.842C88.4607 112.259 87.6429 111.466 87.0482 110.463C86.4659 109.459 86.1747 108.332 86.1747 107.08C86.1747 105.829 86.4659 104.701 87.0482 103.698C87.6429 102.694 88.4607 101.907 89.5014 101.337C90.5546 100.755 91.7254 100.464 93.014 100.464C94.3026 100.464 95.461 100.749 96.4894 101.319C97.5302 101.889 98.3479 102.682 98.9426 103.698C99.5373 104.701 99.8347 105.829 99.8347 107.08C99.8347 108.332 99.5373 109.465 98.9426 110.481C98.3479 111.485 97.5302 112.272 96.4894 112.842C95.461 113.412 94.3026 113.697 93.014 113.697ZM93.014 112.47C94.0424 112.47 94.9716 112.241 95.8018 111.782C96.6319 111.311 97.2824 110.667 97.7532 109.849C98.224 109.019 98.4594 108.096 98.4594 107.08C98.4594 106.064 98.224 105.147 97.7532 104.33C97.2824 103.5 96.6319 102.855 95.8018 102.397C94.9716 101.926 94.0424 101.691 93.014 101.691C91.9856 101.691 91.0502 101.926 90.2077 102.397C89.3775 102.855 88.7209 103.5 88.2377 104.33C87.7668 105.147 87.5314 106.064 87.5314 107.08C87.5314 108.096 87.7668 109.019 88.2377 109.849C88.7209 110.667 89.3775 111.311 90.2077 111.782C91.0502 112.241 91.9856 112.47 93.014 112.47ZM112.688 106.876C113.592 107.062 114.28 107.427 114.751 107.972C115.222 108.505 115.457 109.205 115.457 110.072C115.457 111.2 115.054 112.067 114.249 112.674C113.456 113.281 112.285 113.585 110.736 113.585H104.975V100.575H110.383C111.771 100.575 112.855 100.86 113.636 101.43C114.416 102 114.807 102.824 114.807 103.902C114.807 104.633 114.621 105.253 114.249 105.761C113.877 106.256 113.357 106.628 112.688 106.876ZM106.332 106.467H110.309C111.313 106.467 112.081 106.263 112.613 105.854C113.159 105.445 113.431 104.85 113.431 104.069C113.431 103.289 113.159 102.694 112.613 102.285C112.081 101.876 111.313 101.672 110.309 101.672H106.332V106.467ZM110.736 112.488C112.979 112.488 114.1 111.652 114.1 109.98C114.1 108.344 112.979 107.526 110.736 107.526H106.332V112.488H110.736Z" fill="white"/>
<path d="M119.148 75.1925H1" stroke="white" stroke-width="1.18"/>
<path d="M46.2527 29.286L24.0097 38.195L46.2527 47.104V49.818L21.1777 39.611V36.779L46.2527 26.572V29.286ZM68.6335 9.167H71.3475L51.8775 64.745H49.1635L68.6335 9.167ZM98.7419 36.779V39.611L73.6669 49.818V47.104L95.9099 38.195L73.6669 29.286V26.572L98.7419 36.779Z" fill="white"/>
</svg>
